<svg xmlns="http://www.w3.org/2000/svg" width="29.575" height="31.094" viewBox="0 0 29.575 31.094">
  <path id="Path_412" data-name="Path 412" d="M15.323,5.719c-2.31,0-5.851,1.334-4.62,9.589.019.124.043.259.069.4a4.169,4.169,0,0,1-1.636,4.749,14.581,14.581,0,0,0,6.238,3c-.1.613-.263,1.3-.385,1.752a2.05,2.05,0,0,1-1.445,1.558c-.7.206-1.426.373-2.174.544l-.58.133a18.814,18.814,0,0,0-2.726.8,5.4,5.4,0,0,0-2.2,1.486A3.932,3.932,0,0,0,5,32.409a.646.646,0,0,0,.66.617H31.914a.646.646,0,0,0,.66-.617,3.931,3.931,0,0,0-.865-2.681,5.4,5.4,0,0,0-2.2-1.486,18.819,18.819,0,0,0-2.727-.8l-.579-.133c-.748-.171-1.478-.338-2.175-.544a2.049,2.049,0,0,1-1.445-1.558,19.434,19.434,0,0,1-.44-2.09,19.259,19.259,0,0,0,6.292-3.389l-.01-.01a9.316,9.316,0,0,1-3.1-7.219C25.332,6.463,21.481,1.154,15.323,5.719Z" transform="translate(-4 -2.932)" fill="none" stroke="#333" stroke-linejoin="round" stroke-width="2"/>
</svg>
