<svg xmlns="http://www.w3.org/2000/svg" width="209.938" height="39.611" viewBox="0 0 209.938 39.611">
  <path id="Afterpay" d="M17.278,19.384a5.908,5.908,0,1,0-11.812,0,5.908,5.908,0,1,0,11.812,0Zm.048,10.6V27.225a8.784,8.784,0,0,1-6.861,3.092C4.516,30.316,0,25.654,0,19.384A10.651,10.651,0,0,1,10.6,8.407a8.748,8.748,0,0,1,6.73,3.05V8.788H22.67V29.98Zm31.285-4.706c-1.87,0-2.389-.677-2.389-2.456v-9.41h3.432V8.786H46.222V3.616H40.748V8.786H33.7V7.5c0-1.783.7-2.462,2.608-2.462h1.2V.927H34.872c-4.516,0-6.643,1.442-6.643,5.849V8.784h-3.04v4.625h3.04V29.978H33.7V13.408h7.051V23.792c0,4.324,1.691,6.189,6.12,6.189H49.7V25.276H48.609Zm19.629-7.8a5.171,5.171,0,0,0-5.385-4.407,5.338,5.338,0,0,0-5.47,4.407H68.238Zm-10.9,3.308a5.364,5.364,0,0,0,5.6,4.918,5.782,5.782,0,0,0,5.124-2.757h5.605c-1.305,4.492-5.431,7.374-10.859,7.374-6.556,0-11.159-4.49-11.159-10.891s4.864-11.02,11.293-11.02A10.739,10.739,0,0,1,74.1,19.425a6.841,6.841,0,0,1-.129,1.357H57.339Zm51.566-1.4a5.908,5.908,0,1,0-11.812,0,5.908,5.908,0,1,0,11.812,0Zm-17.2-10.6h5.342v2.755a8.671,8.671,0,0,1,6.861-3.135c5.862,0,10.463,4.706,10.463,10.933a10.653,10.653,0,0,1-10.594,10.98,8.486,8.486,0,0,1-6.556-2.84V38.7H91.706Zm41.917,10.6a5.908,5.908,0,1,0-11.812,0,5.908,5.908,0,1,0,11.812,0Zm.048,10.6V27.225a8.784,8.784,0,0,1-6.861,3.092c-5.95,0-10.465-4.662-10.465-10.933a10.651,10.651,0,0,1,10.6-10.976,8.751,8.751,0,0,1,6.73,3.05V8.788h5.34V29.98h-5.34ZM82.081,10.865a5.392,5.392,0,0,1,4.688-2.456,5.532,5.532,0,0,1,2.345.475v5.407a7.019,7.019,0,0,0-3.854-.967c-1.846.244-3.012,1.9-3.007,4.112V29.984H76.739V8.792h5.342Zm81.873-2.078L150.47,38.633h-5.686l5.294-11.539L141.125,8.788h6.445l5.237,12.232L158.18,8.788h5.773ZM207,8.306,193.628.778A5.886,5.886,0,0,0,184.8,5.753v.772a1.942,1.942,0,0,0,1,1.689l2.525,1.422A1.108,1.108,0,0,0,189.99,8.7V6.779A1.278,1.278,0,0,1,191.907,5.7l11.578,6.524a1.231,1.231,0,0,1,0,2.159L191.907,20.9a1.277,1.277,0,0,1-1.915-1.081V18.8a5.889,5.889,0,0,0-8.833-4.975l-13.369,7.53a5.676,5.676,0,0,0,0,9.95l13.369,7.528a5.89,5.89,0,0,0,8.833-4.975v-.772a1.947,1.947,0,0,0-1-1.689l-2.523-1.426a1.111,1.111,0,0,0-1.666.939V32.83a1.276,1.276,0,0,1-1.915,1.079l-11.58-6.522a1.234,1.234,0,0,1,0-2.161l11.58-6.524a1.276,1.276,0,0,1,1.915,1.081v1.022a5.885,5.885,0,0,0,8.827,4.975L207,18.251a5.672,5.672,0,0,0,0-9.942Z" fill="#fff"/>
</svg>
