<svg id="afterpay" xmlns="http://www.w3.org/2000/svg" width="136" height="63" viewBox="0 0 136 63">
  <rect id="Rectangle_213" data-name="Rectangle 213" width="136" height="63" transform="translate(0)" fill="#b2fce4"/>
  <path id="Afterpay-2" data-name="Afterpay" d="M9.05,10.153a3.095,3.095,0,1,0-6.187,0,3.095,3.095,0,1,0,6.187,0Zm.025,5.55V14.26a4.6,4.6,0,0,1-3.594,1.619A5.478,5.478,0,0,1,0,10.153,5.579,5.579,0,0,1,5.551,4.4,4.582,4.582,0,0,1,9.076,6V4.6h2.8V15.7Zm16.387-2.465c-.979,0-1.251-.355-1.251-1.286V7.023h1.8V4.6h-1.8V1.894H21.343V4.6H17.65V3.928c0-.934.365-1.289,1.366-1.289h.629V.485h-1.38c-2.365,0-3.479.755-3.479,3.063V4.6H13.194V7.023h1.592V15.7h2.867V7.023h3.693v5.439c0,2.265.886,3.242,3.206,3.242h1.479V13.239h-.571ZM35.744,9.153a2.708,2.708,0,0,0-2.821-2.308,2.8,2.8,0,0,0-2.865,2.308h5.685Zm-5.71,1.732a2.81,2.81,0,0,0,2.935,2.576,3.029,3.029,0,0,0,2.684-1.444h2.936A5.569,5.569,0,0,1,32.9,15.879a5.534,5.534,0,0,1-5.845-5.7A5.683,5.683,0,0,1,32.971,4.4a5.625,5.625,0,0,1,5.845,5.772,3.583,3.583,0,0,1-.067.711H30.034Zm27.01-.732a3.095,3.095,0,1,0-6.187,0,3.095,3.095,0,1,0,6.187,0ZM48.035,4.6h2.8V6.046A4.542,4.542,0,0,1,54.426,4.4a5.519,5.519,0,0,1,5.481,5.726,5.58,5.58,0,0,1-5.549,5.751,4.445,4.445,0,0,1-3.434-1.488v5.877H48.035Zm21.956,5.55a3.095,3.095,0,1,0-6.187,0,3.095,3.095,0,1,0,6.187,0Zm.025,5.55V14.26a4.6,4.6,0,0,1-3.594,1.619,5.478,5.478,0,0,1-5.482-5.726A5.579,5.579,0,0,1,66.49,4.4,4.584,4.584,0,0,1,70.015,6V4.6h2.8V15.7h-2.8ZM42.993,5.691A2.824,2.824,0,0,1,45.448,4.4a2.9,2.9,0,0,1,1.228.249V7.486a3.676,3.676,0,0,0-2.019-.506,1.959,1.959,0,0,0-1.575,2.154v6.572H40.2V4.605h2.8ZM85.877,4.6,78.814,20.236H75.836l2.773-6.044L73.92,4.6H77.3l2.743,6.407L82.853,4.6h3.024Zm22.546-.252-7-3.943A3.083,3.083,0,0,0,96.8,3.014v.4a1.017,1.017,0,0,0,.524.885l1.323.745a.58.58,0,0,0,.871-.491V3.551a.67.67,0,0,1,1-.566L106.583,6.4a.645.645,0,0,1,0,1.131l-6.065,3.416a.669.669,0,0,1-1-.566V9.847a3.085,3.085,0,0,0-4.627-2.606l-7,3.944a2.973,2.973,0,0,0,0,5.212l7,3.943a3.085,3.085,0,0,0,4.627-2.606v-.4a1.02,1.02,0,0,0-.525-.885L97.669,15.7a.582.582,0,0,0-.872.492V17.2a.669.669,0,0,1-1,.565l-6.066-3.416a.646.646,0,0,1,0-1.132L95.793,9.8a.669.669,0,0,1,1,.566V10.9A3.083,3.083,0,0,0,101.42,13.5l7-3.944a2.971,2.971,0,0,0,0-5.208Z" transform="translate(13.946 21.035)"/>
</svg>
