<svg xmlns="http://www.w3.org/2000/svg" width="105.999" height="20" viewBox="0 0 105.999 20">
  <path id="Afterpay" d="M8.724,9.787a2.983,2.983,0,1,0-5.964,0,2.983,2.983,0,1,0,5.964,0Zm.024,5.35V13.746a4.435,4.435,0,0,1-3.464,1.561A5.281,5.281,0,0,1,0,9.787,5.378,5.378,0,0,1,5.351,4.245a4.417,4.417,0,0,1,3.4,1.54V4.437h2.7v10.7Zm15.8-2.376c-.944,0-1.206-.342-1.206-1.24V6.77h1.733V4.436H23.338V1.826H20.574v2.61h-3.56v-.65c0-.9.352-1.243,1.317-1.243h.606V.468h-1.33c-2.28,0-3.354.728-3.354,2.953V4.435H12.718V6.77h1.535v8.366h2.764V6.77h3.56v5.243c0,2.183.854,3.125,3.09,3.125h1.426V12.762h-.55Zm9.911-3.938A2.611,2.611,0,0,0,31.736,6.6a2.7,2.7,0,0,0-2.762,2.225h5.48Zm-5.5,1.67a2.708,2.708,0,0,0,2.829,2.483,2.919,2.919,0,0,0,2.587-1.392H37.2a5.368,5.368,0,0,1-5.483,3.723,5.334,5.334,0,0,1-5.634-5.5,5.478,5.478,0,0,1,5.7-5.564,5.422,5.422,0,0,1,5.634,5.564,3.454,3.454,0,0,1-.065.685h-8.4Zm26.036-.706a2.983,2.983,0,1,0-5.964,0,2.983,2.983,0,1,0,5.964,0ZM46.3,4.437H49V5.828a4.378,4.378,0,0,1,3.464-1.583,5.32,5.32,0,0,1,5.283,5.52A5.379,5.379,0,0,1,52.4,15.309a4.285,4.285,0,0,1-3.31-1.434V19.54H46.3Zm21.164,5.35a2.983,2.983,0,1,0-5.964,0,2.983,2.983,0,1,0,5.964,0Zm.024,5.35V13.746a4.435,4.435,0,0,1-3.464,1.561,5.281,5.281,0,0,1-5.284-5.52,5.378,5.378,0,0,1,5.35-5.542,4.418,4.418,0,0,1,3.4,1.54V4.437h2.7v10.7h-2.7ZM41.443,5.486a2.722,2.722,0,0,1,2.367-1.24,2.793,2.793,0,0,1,1.184.24v2.73a3.544,3.544,0,0,0-1.946-.488A1.888,1.888,0,0,0,41.53,8.8v6.335H38.746V4.439h2.7ZM82.781,4.437,75.973,19.506H73.1l2.673-5.826-4.52-9.243h3.254l2.644,6.176,2.713-6.176h2.915Zm21.733-.243-6.75-3.8a2.972,2.972,0,0,0-4.457,2.512V3.3a.981.981,0,0,0,.5.853l1.275.718a.559.559,0,0,0,.84-.473v-.97a.646.646,0,0,1,.968-.546l5.846,3.294a.622.622,0,0,1,0,1.09l-5.846,3.293a.645.645,0,0,1-.967-.546V9.492a2.973,2.973,0,0,0-4.46-2.512l-6.75,3.8a2.866,2.866,0,0,0,0,5.024l6.75,3.8a2.974,2.974,0,0,0,4.46-2.512v-.39a.983.983,0,0,0-.506-.853l-1.274-.72a.561.561,0,0,0-.841.474v.97a.645.645,0,0,1-.967.545l-5.847-3.293a.623.623,0,0,1,0-1.091L92.34,9.443a.644.644,0,0,1,.967.546v.516a2.971,2.971,0,0,0,4.457,2.512l6.75-3.8a2.864,2.864,0,0,0,0-5.02Z" transform="translate(0 0)" fill="rgba(0,0,0,0.6)"/>
</svg>
