<svg xmlns="http://www.w3.org/2000/svg" width="25.854" height="31" viewBox="0 0 25.854 31">
  <g id="noun-bag-1051352" transform="translate(-325.397 -86.338)">
    <path id="Path_398" data-name="Path 398" d="M179.316,71.322h20.016a2.729,2.729,0,0,0,2.919-2.532V52.15a2.729,2.729,0,0,0-2.919-2.532h-2.5V46.905c0-3.617-3.378-6.583-7.506-6.583s-7.506,2.966-7.506,6.583v2.713h-2.5A2.729,2.729,0,0,0,176.4,52.15V68.79A2.753,2.753,0,0,0,179.316,71.322Zm4.735-24.453c0-2.424,2.52-4.413,5.272-4.413s5.278,1.99,5.278,4.413v2.713h-10.55Zm-5.723,5.281c0-.217.737-.612.987-.612h2.5V55.1h2.234V51.538H194.6V55.1h2.228V51.538h2.5c.25,0,1.084.4,1.084.613V68.79c0,.217-.834.63-1.084.63H179.112c-.25,0-.783-.413-.783-.63Z" transform="translate(149 46.016)" fill="#333"/>
  </g>
</svg>
