<svg xmlns="http://www.w3.org/2000/svg" width="37.198" height="37.198" viewBox="0 0 37.198 37.198">
  <g id="ColourBrown" fill="#fff">
    <path d="M 18.59917449951172 36.94843292236328 C 16.12194442749023 36.94843292236328 13.71894454956055 36.46331405639648 11.45692443847656 35.50656509399414 C 9.271944046020508 34.58239364624023 7.309584617614746 33.25931549072266 5.624354362487793 31.57407379150391 C 3.939114570617676 29.88882446289062 2.616034507751465 27.92646408081055 1.691874504089355 25.74148368835449 C 0.7351145148277283 23.47945404052734 0.2500045001506805 21.07645416259766 0.2500045001506805 18.59921455383301 C 0.2500045001506805 16.12197494506836 0.7351145148277283 13.71897411346436 1.691874504089355 11.45695495605469 C 2.616034507751465 9.271965026855469 3.939114570617676 7.309604644775391 5.624354362487793 5.624364376068115 C 7.309584617614746 3.939124584197998 9.271944046020508 2.616044521331787 11.45692443847656 1.691874504089355 C 13.71894454956055 0.735114574432373 16.12194442749023 0.2500045597553253 18.59917449951172 0.2500045597553253 C 21.0764045715332 0.2500045597553253 23.47940444946289 0.735114574432373 25.74142456054688 1.691874504089355 C 27.92640495300293 2.616044521331787 29.88876533508301 3.939124584197998 31.57400512695312 5.624364376068115 C 33.25924301147461 7.309604644775391 34.58231353759766 9.271974563598633 35.50648498535156 11.45695495605469 C 36.4632453918457 13.71897411346436 36.9483528137207 16.12197494506836 36.9483528137207 18.59921455383301 C 36.9483528137207 21.07645416259766 36.4632453918457 23.47945404052734 35.50648498535156 25.74148368835449 C 34.58231353759766 27.92646408081055 33.25924301147461 29.88882446289062 31.57400512695312 31.57407379150391 C 29.88876533508301 33.25931549072266 27.92640495300293 34.58239364624023 25.74142456054688 35.50656509399414 C 23.47940444946289 36.46331405639648 21.0764045715332 36.94843292236328 18.59917449951172 36.94843292236328 Z" stroke="none"/>
    <path d="M 18.59917449951172 0.4999961853027344 C 16.15558433532715 0.4999961853027344 13.78534507751465 0.9784660339355469 11.55431365966797 1.922115325927734 C 9.399133682250977 2.833683013916016 7.463483810424805 4.138774871826172 5.801124572753906 5.80113410949707 C 4.138763427734375 7.463495254516602 2.833675384521484 9.399154663085938 1.922115325927734 11.55433464050293 C 0.9784660339355469 13.78537368774414 0.4999961853027344 16.15561485290527 0.4999961853027344 18.59921455383301 C 0.4999961853027344 21.04281425476074 0.9784660339355469 23.41305541992188 1.922115325927734 25.64409446716309 C 2.833675384521484 27.79927444458008 4.138763427734375 29.73492431640625 5.801124572753906 31.39728546142578 C 7.463483810424805 33.05965423583984 9.399133682250977 34.3647346496582 11.55431365966797 35.27630615234375 C 13.78534507751465 36.21995544433594 16.15558433532715 36.69842529296875 18.59917449951172 36.69842529296875 C 21.04276466369629 36.69842529296875 23.41300582885742 36.21995544433594 25.64403533935547 35.27630615234375 C 27.79921340942383 34.3647346496582 29.73486518859863 33.05965423583984 31.39722442626953 31.39728546142578 C 33.05957412719727 29.73492431640625 34.36466598510742 27.79927444458008 35.27622604370117 25.64409446716309 C 36.21987533569336 23.41305541992188 36.69834518432617 21.04281425476074 36.69834518432617 18.59921455383301 C 36.69834518432617 16.15561485290527 36.21987533569336 13.78537368774414 35.27622604370117 11.55433464050293 C 34.36466598510742 9.399154663085938 33.05957412719727 7.463495254516602 31.39722442626953 5.80113410949707 C 29.73486518859863 4.138774871826172 27.79921340942383 2.833683013916016 25.64403533935547 1.922115325927734 C 23.41300582885742 0.9784660339355469 21.04276466369629 0.4999961853027344 18.59917449951172 0.4999961853027344 M 18.59917449951172 -3.814697265625e-06 C 28.8712158203125 -3.814697265625e-06 37.19834518432617 8.327154159545898 37.19834518432617 18.59921455383301 C 37.19834518432617 28.87127494812012 28.8712158203125 37.19842529296875 18.59917449951172 37.19842529296875 C 8.32713508605957 37.19842529296875 -3.814697265625e-06 28.87127494812012 -3.814697265625e-06 18.59921455383301 C -3.814697265625e-06 8.327154159545898 8.32713508605957 -3.814697265625e-06 18.59917449951172 -3.814697265625e-06 Z" stroke="none" fill="#707070"/>
  </g>
</svg>
