<svg xmlns="http://www.w3.org/2000/svg" width="31.131" height="25.733" viewBox="0 0 31.131 25.733">
  <g id="noun-filter-5659419" transform="translate(34.922 40.208)">
    <path id="Path_69" data-name="Path 69" d="M84.66,58.3a3.409,3.409,0,0,0,1.989-.64,3.261,3.261,0,0,0,1.209-1.666h24.591V54.1H87.858a3.268,3.268,0,0,0-1.481-1.843,3.419,3.419,0,0,0-2.369-.4,3.353,3.353,0,0,0-2.031,1.253,3.188,3.188,0,0,0-.641,2.256,3.223,3.223,0,0,0,1.081,2.09,3.394,3.394,0,0,0,2.243.843Zm0-4.613a1.417,1.417,0,0,1,.988.4,1.334,1.334,0,0,1,0,1.923,1.425,1.425,0,0,1-1.976,0,1.333,1.333,0,0,1,0-1.923,1.419,1.419,0,0,1,.988-.4Zm24.446,7.72h0a3.411,3.411,0,0,0-1.989.641,3.263,3.263,0,0,0-1.208,1.666H81.317v1.895h24.591a3.267,3.267,0,0,0,1.481,1.843,3.419,3.419,0,0,0,2.37.4,3.354,3.354,0,0,0,2.031-1.253,3.188,3.188,0,0,0,.641-2.256,3.221,3.221,0,0,0-1.081-2.09,3.393,3.393,0,0,0-2.243-.843Zm0,4.613h0a1.417,1.417,0,0,1-.988-.4,1.334,1.334,0,0,1,0-1.924,1.425,1.425,0,0,1,1.976,0,1.332,1.332,0,0,1,0,1.922,1.417,1.417,0,0,1-.987.4Zm-24.446,5a3.394,3.394,0,0,0-2.243.843,3.222,3.222,0,0,0-1.081,2.09,3.189,3.189,0,0,0,.641,2.256,3.353,3.353,0,0,0,2.031,1.253,3.42,3.42,0,0,0,2.369-.4,3.268,3.268,0,0,0,1.481-1.843h24.591V73.326H87.858a3.263,3.263,0,0,0-1.209-1.665,3.409,3.409,0,0,0-1.989-.64Zm0,4.613a1.417,1.417,0,0,1-.988-.4,1.335,1.335,0,0,1,0-1.923,1.425,1.425,0,0,1,1.976,0,1.333,1.333,0,0,1,0,1.923,1.419,1.419,0,0,1-.987.4Z" transform="translate(-116.239 -92)" opacity="0.52"/>
  </g>
</svg>
