<svg id="Mastercard-logo" xmlns="http://www.w3.org/2000/svg" width="199.699" height="41.632" viewBox="0 0 199.699 41.632">
  <path id="XMLID_1775_" d="M67.331,674.655v-6.876a4.033,4.033,0,0,0-4.353-4.353,4.508,4.508,0,0,0-3.9,1.949,4.023,4.023,0,0,0-3.672-1.949,3.693,3.693,0,0,0-3.2,1.6v-1.375H49.8v11h2.4V668.58c0-1.949,1.028-2.871,2.63-2.871s2.4,1.028,2.4,2.871v6.075h2.4V668.58a2.539,2.539,0,0,1,2.63-2.871c1.6,0,2.4,1.028,2.4,2.871v6.075Zm35.651-11h-3.9v-3.325h-2.4v3.325H94.5v2.176H96.68v5.047c0,2.523,1.028,4.006,3.779,4.006a6.463,6.463,0,0,0,2.978-.8l-.694-2.07a3.843,3.843,0,0,1-2.07.574c-1.148,0-1.6-.694-1.6-1.829v-4.927h3.9v-2.176Zm20.4-.24a3.258,3.258,0,0,0-2.871,1.6v-1.375h-2.4v11h2.4v-6.2c0-1.829.8-2.871,2.3-2.871a7.371,7.371,0,0,1,1.5.227l.694-2.3a9.537,9.537,0,0,0-1.616-.093Zm-30.83,1.148a7.885,7.885,0,0,0-4.473-1.148c-2.751,0-4.58,1.375-4.58,3.552,0,1.829,1.375,2.871,3.779,3.2l1.148.12c1.255.227,1.949.574,1.949,1.148,0,.8-.921,1.375-2.524,1.375a6.335,6.335,0,0,1-3.672-1.148l-1.148,1.829a8.055,8.055,0,0,0,4.7,1.375c3.2,0,5.047-1.5,5.047-3.552,0-1.949-1.5-2.978-3.779-3.325l-1.148-.12c-1.028-.12-1.829-.347-1.829-1.028,0-.8.8-1.255,2.07-1.255a8.27,8.27,0,0,1,3.445.921l1.015-1.949Zm63.944-1.148a3.257,3.257,0,0,0-2.871,1.6v-1.375h-2.4v11h2.4v-6.2c0-1.829.8-2.871,2.3-2.871a7.371,7.371,0,0,1,1.5.227l.694-2.27a7.326,7.326,0,0,0-1.616-.12Zm-30.71,5.741a5.506,5.506,0,0,0,5.848,5.728,5.757,5.757,0,0,0,3.9-1.255l-1.148-1.949a4.591,4.591,0,0,1-2.871,1.028,3.254,3.254,0,0,1-3.325-3.552,3.372,3.372,0,0,1,3.325-3.552,4.7,4.7,0,0,1,2.871,1.028l1.148-1.949a5.69,5.69,0,0,0-3.9-1.255,5.5,5.5,0,0,0-5.848,5.728Zm22.232,0v-5.5h-2.4v1.375a4.152,4.152,0,0,0-3.445-1.6,5.733,5.733,0,0,0,0,11.456,3.886,3.886,0,0,0,3.445-1.6v1.375h2.4v-5.5Zm-8.826,0a3.332,3.332,0,1,1,6.649,0,3.332,3.332,0,1,1-6.649,0Zm-28.761-5.741a5.731,5.731,0,0,0,.12,11.456,6.985,6.985,0,0,0,4.473-1.5l-1.148-1.722a5.458,5.458,0,0,1-3.2,1.148,3.1,3.1,0,0,1-3.325-2.63h8.132v-.921c.107-3.538-1.963-5.835-5.047-5.835Zm0,2.069a2.678,2.678,0,0,1,2.751,2.63h-5.728a2.9,2.9,0,0,1,2.978-2.63Zm59.711,3.672V659.3h-2.4v5.728a4.152,4.152,0,0,0-3.445-1.6,5.733,5.733,0,0,0,0,11.456,3.886,3.886,0,0,0,3.445-1.6v1.375h2.4v-5.5Zm-8.826,0a3.332,3.332,0,1,1,6.649,0,3.332,3.332,0,1,1-6.649,0Zm-80.461,0v-5.5h-2.4v1.375a4.152,4.152,0,0,0-3.445-1.6,5.733,5.733,0,0,0,0,11.456,3.886,3.886,0,0,0,3.445-1.6v1.375h2.4v-5.5Zm-8.933,0a3.332,3.332,0,1,1,6.649,0,3.332,3.332,0,1,1-6.649,0Z" transform="translate(29.555 -646.275)" fill="#fff"/>
  <g id="Group_177" data-name="Group 177">
    <rect id="rect19" width="18.216" height="32.727" transform="translate(24.521 4.453)" fill="#ff5a00"/>
    <path id="XMLID_330_" d="M25.734,20.816A20.875,20.875,0,0,1,33.656,4.453a20.809,20.809,0,1,0-12.84,37.18,20.7,20.7,0,0,0,12.84-4.453A20.774,20.774,0,0,1,25.734,20.816Z" fill="#eb001b"/>
    <path id="path22" d="M533.256,20.816A20.8,20.8,0,0,1,499.6,37.18a20.86,20.86,0,0,0,0-32.727,20.8,20.8,0,0,1,33.656,16.363Z" transform="translate(-465.944)" fill="#f79e1b"/>
  </g>
</svg>
