<svg xmlns="http://www.w3.org/2000/svg" width="136" height="63" viewBox="0 0 136 63">
  <g id="mastercard" transform="translate(0.301)">
    <rect id="Rectangle_214" data-name="Rectangle 214" width="136" height="63" transform="translate(-0.301)" fill="rgba(232,232,232,0.63)"/>
    <g id="Mastercard-logo" transform="translate(68.142 17.877)">
      <g id="Group_90" data-name="Group 90">
        <rect id="rect19" width="16.66" height="29.931" transform="translate(22.427 4.073)" fill="#ff5a00"/>
        <path id="XMLID_330_" d="M23.536,19.038A19.092,19.092,0,0,1,30.781,4.073a19.032,19.032,0,1,0-11.743,34A18.936,18.936,0,0,0,30.781,34,19,19,0,0,1,23.536,19.038Z" fill="#eb001b"/>
        <path id="path22" d="M530.381,19.038A19.02,19.02,0,0,1,499.6,34a19.078,19.078,0,0,0,0-29.931,19.02,19.02,0,0,1,30.781,14.965Z" transform="translate(-468.819)" fill="#f79e1b"/>
      </g>
    </g>
    <g id="g4158" transform="translate(7.972 10.867)">
      <path id="polygon9" d="M438.649,130.611h-5.142l3.216-19.885h5.141Z" transform="translate(-411.145 -110.366)" fill="#00579f"/>
      <path id="path11" d="M580.6,105.894a12.671,12.671,0,0,0-4.612-.847c-5.077,0-8.653,2.708-8.675,6.579-.042,2.856,2.56,4.442,4.506,5.395,1.989.973,2.665,1.608,2.665,2.476-.02,1.332-1.607,1.946-3.088,1.946a10.233,10.233,0,0,1-4.824-1.058l-.677-.318-.72,4.464a15.648,15.648,0,0,0,5.734,1.058c5.395,0,8.907-2.666,8.949-6.791.021-2.264-1.354-4-4.316-5.415-1.8-.91-2.9-1.523-2.9-2.454.021-.846.931-1.713,2.961-1.713a8.736,8.736,0,0,1,3.83.761l.465.211.7-4.294Z" transform="translate(-534.46 -105.048)" fill="#00579f"/>
      <path id="path13" d="M798.477,123.567c.423-1.142,2.053-5.564,2.053-5.564-.021.042.423-1.163.677-1.9l.359,1.713s.974,4.76,1.185,5.754Zm6.346-12.84h-3.977a2.537,2.537,0,0,0-2.687,1.65l-7.637,18.234h5.395L797,127.628h6.6c.148.7.614,2.983.614,2.983h4.761l-4.148-19.884Z" transform="translate(-745.501 -110.366)" fill="#00579f"/>
      <path id="path15" d="M178.53,110.727l-5.035,13.559-.55-2.75a15.219,15.219,0,0,0-7.108-8.335l4.612,17.389h5.437l8.082-19.863Z" transform="translate(-160.462 -110.366)" fill="#00579f"/>
      <path id="path17" d="M89.523,110.727H81.25l-.085.4c6.453,1.65,10.726,5.628,12.482,10.408l-1.8-9.139a2.127,2.127,0,0,0-2.327-1.671Z" transform="translate(-81.166 -110.366)" fill="#faa61a"/>
    </g>
  </g>
</svg>
