<svg id="PayPal" xmlns="http://www.w3.org/2000/svg" width="162.162" height="42.992" viewBox="0 0 162.162 42.992">
  <path id="Path_179" data-name="Path 179" d="M-833.546,39.734a.677.677,0,0,0-.669.572l-3.863,24.5a.627.627,0,0,0,.143.5.627.627,0,0,0,.477.22h4.581a.678.678,0,0,0,.669-.572l1.135-7.194a.677.677,0,0,1,.669-.572h4.165a9.879,9.879,0,0,0,9.753-8.363c.761-4.852-3.03-9.084-8.4-9.094Zm4.453,5.469h3.333c2.744,0,3.637,1.619,3.355,3.409s-1.67,3.116-4.324,3.116h-3.392Zm21.925,1.665a10.42,10.42,0,0,0-3.982.864,10.405,10.405,0,0,0-5.773,6.535s-2.225,6.568,2.8,10.176a8.583,8.583,0,0,0,9.911-.214l-.09.576a.627.627,0,0,0,.143.5.627.627,0,0,0,.476.22h4.349a.677.677,0,0,0,.669-.572l2.646-16.777a.627.627,0,0,0-.142-.505.627.627,0,0,0-.476-.22h-4.349a.677.677,0,0,0-.669.572l-.142.9a7.553,7.553,0,0,0-5.37-2.062Zm.142,5.3a4.457,4.457,0,0,1,1.366.2,3.847,3.847,0,0,1,2.632,4.359,4.872,4.872,0,0,1-4.883,4.178,4.46,4.46,0,0,1-1.366-.2,3.852,3.852,0,0,1-2.639-4.359,4.879,4.879,0,0,1,4.89-4.179Z" transform="translate(885.4 -31.137)" fill="#fff"/>
  <path id="Path_180" data-name="Path 180" d="M-702.746,39.734a.677.677,0,0,0-.669.572l-3.863,24.5a.628.628,0,0,0,.143.5.627.627,0,0,0,.477.22h4.581a.678.678,0,0,0,.669-.572l1.135-7.194a.677.677,0,0,1,.669-.572h4.165a9.877,9.877,0,0,0,9.752-8.363c.762-4.852-3.029-9.084-8.4-9.094Zm4.454,5.469h3.333c2.744,0,3.637,1.619,3.355,3.409s-1.67,3.116-4.324,3.116h-3.392Zm21.924,1.665a10.419,10.419,0,0,0-3.982.864,10.4,10.4,0,0,0-5.773,6.535s-2.224,6.568,2.8,10.176a8.582,8.582,0,0,0,9.91-.214l-.091.576a.627.627,0,0,0,.143.5.627.627,0,0,0,.477.22h4.349a.678.678,0,0,0,.669-.572l2.646-16.777a.627.627,0,0,0-.143-.506.627.627,0,0,0-.477-.22h-4.349a.677.677,0,0,0-.669.572l-.142.9a7.552,7.552,0,0,0-5.37-2.062Zm.142,5.3a4.456,4.456,0,0,1,1.366.2,3.847,3.847,0,0,1,2.632,4.359,4.871,4.871,0,0,1-4.883,4.178,4.46,4.46,0,0,1-1.366-.2,3.852,3.852,0,0,1-2.639-4.359,4.879,4.879,0,0,1,4.89-4.179Z" transform="translate(817.23 -31.137)" fill="#fff"/>
  <path id="Path_181" data-name="Path 181" d="M-746.474,55.858a.509.509,0,0,0-.485.665l4.768,14.8-4.311,6.973a.508.508,0,0,0,.432.776h5.1a.847.847,0,0,0,.724-.409l13.317-22.029a.509.509,0,0,0-.435-.771h-5.1a.847.847,0,0,0-.729.416l-5.242,8.85L-741.1,56.34a.679.679,0,0,0-.649-.482Z" transform="translate(837.919 -39.54)" fill="#fff"/>
  <path id="Path_182" data-name="Path 182" d="M-614.05,39.734a.678.678,0,0,0-.669.572l-3.864,24.5a.627.627,0,0,0,.143.506.627.627,0,0,0,.477.22h4.581a.678.678,0,0,0,.669-.572l3.863-24.5a.627.627,0,0,0-.143-.5.628.628,0,0,0-.476-.22Z" transform="translate(771.004 -31.137)" fill="#fff"/>
  <path id="Path_183" data-name="Path 183" d="M-911.916,39.734a1.24,1.24,0,0,0-1.224,1.046l-2.034,12.9a1.239,1.239,0,0,1,1.224-1.046h5.959a12.171,12.171,0,0,0,12.016-10.3,9.916,9.916,0,0,0,.117-1.337,11.311,11.311,0,0,0-5.276-1.256Z" transform="translate(925.576 -31.137)" fill="#fff"/>
  <path id="Path_184" data-name="Path 184" d="M-899.181,42.359A9.925,9.925,0,0,1-899.3,43.7,12.171,12.171,0,0,1-911.314,54h-5.959a1.239,1.239,0,0,0-1.224,1.046l-1.87,11.852-1.171,7.435a1.006,1.006,0,0,0,.228.811,1.006,1.006,0,0,0,.765.353h6.468a1.24,1.24,0,0,0,1.224-1.046l1.7-10.806a1.24,1.24,0,0,1,1.225-1.046h3.808A12.171,12.171,0,0,0-894.1,52.3a9.446,9.446,0,0,0-5.081-9.936Z" transform="translate(928.899 -32.505)" fill="rgba(255,255,255,0.68)"/>
  <path id="Path_185" data-name="Path 185" d="M-930.586,21.779a1.239,1.239,0,0,0-1.224,1.045l-5.076,32.185a1.007,1.007,0,0,0,.995,1.164h7.527l1.869-11.852,2.034-12.9a1.24,1.24,0,0,1,1.224-1.046h10.783a11.314,11.314,0,0,1,5.276,1.256c.1-5.4-4.349-9.854-10.473-9.854Z" transform="translate(936.898 -21.779)" fill="#fff"/>
</svg>
