<svg xmlns="http://www.w3.org/2000/svg" width="134" height="63" viewBox="0 0 134 63">
  <g id="paypal" transform="translate(-0.432)">
    <rect id="Rectangle_215" data-name="Rectangle 215" width="134" height="63" transform="translate(0.432)" fill="#ffc439"/>
    <g id="PayPal-2" data-name="PayPal" transform="translate(9.111 12.736)">
      <path id="Path_179" data-name="Path 179" d="M-834.853,39.734a.482.482,0,0,0-.477.407l-2.751,17.446a.447.447,0,0,0,.1.36.447.447,0,0,0,.339.156h3.262a.483.483,0,0,0,.477-.407l.808-5.123a.482.482,0,0,1,.477-.407h2.966A7.035,7.035,0,0,0-822.7,46.21c.542-3.455-2.158-6.468-5.984-6.476Zm3.171,3.895h2.373c1.954,0,2.59,1.153,2.389,2.428s-1.189,2.219-3.079,2.219h-2.415Zm15.612,1.186a7.42,7.42,0,0,0-2.836.615,7.409,7.409,0,0,0-4.111,4.653s-1.584,4.677,2,7.247a6.112,6.112,0,0,0,7.057-.152l-.064.41a.446.446,0,0,0,.1.359.446.446,0,0,0,.339.157h3.1a.482.482,0,0,0,.477-.407l1.884-11.947a.446.446,0,0,0-.1-.36.447.447,0,0,0-.339-.157h-3.1a.482.482,0,0,0-.477.407l-.1.643a5.378,5.378,0,0,0-3.824-1.468Zm.1,3.773a3.175,3.175,0,0,1,.973.143,2.739,2.739,0,0,1,1.875,3.1A3.469,3.469,0,0,1-816.6,54.81a3.176,3.176,0,0,1-.973-.143,2.743,2.743,0,0,1-1.879-3.1,3.474,3.474,0,0,1,3.482-2.976Z" transform="translate(871.778 -33.612)" fill="#003087"/>
      <path id="Path_180" data-name="Path 180" d="M-704.053,39.734a.482.482,0,0,0-.477.407l-2.751,17.446a.447.447,0,0,0,.1.36.447.447,0,0,0,.339.156h3.262a.483.483,0,0,0,.477-.407l.808-5.123a.482.482,0,0,1,.477-.407h2.966a7.033,7.033,0,0,0,6.944-5.955c.542-3.455-2.157-6.468-5.983-6.476Zm3.171,3.895h2.373c1.954,0,2.59,1.153,2.389,2.428s-1.189,2.219-3.079,2.219h-2.415Zm15.612,1.186a7.419,7.419,0,0,0-2.836.615,7.409,7.409,0,0,0-4.111,4.653s-1.584,4.677,2,7.247a6.111,6.111,0,0,0,7.057-.152l-.064.41a.447.447,0,0,0,.1.36.447.447,0,0,0,.339.156h3.1a.483.483,0,0,0,.477-.407l1.884-11.947a.447.447,0,0,0-.1-.36.446.446,0,0,0-.34-.157h-3.1a.482.482,0,0,0-.477.407l-.1.643a5.378,5.378,0,0,0-3.824-1.468Zm.1,3.773a3.174,3.174,0,0,1,.973.143,2.739,2.739,0,0,1,1.875,3.1A3.469,3.469,0,0,1-685.8,54.81a3.176,3.176,0,0,1-.973-.143,2.743,2.743,0,0,1-1.879-3.1,3.474,3.474,0,0,1,3.482-2.976Z" transform="translate(785.576 -33.612)" fill="#0070e0"/>
      <path id="Path_181" data-name="Path 181" d="M-746.621,55.858a.363.363,0,0,0-.345.473l3.4,10.536-3.07,4.965a.362.362,0,0,0,.308.552h3.629a.6.6,0,0,0,.516-.291l9.483-15.687a.362.362,0,0,0-.31-.549h-3.628a.6.6,0,0,0-.519.3l-3.733,6.3-1.895-6.255a.483.483,0,0,0-.462-.343Z" transform="translate(811.738 -44.238)" fill="#003087"/>
      <path id="Path_182" data-name="Path 182" d="M-615.357,39.734a.483.483,0,0,0-.477.407l-2.752,17.445a.447.447,0,0,0,.1.36.447.447,0,0,0,.34.157h3.262a.483.483,0,0,0,.477-.407l2.751-17.446a.447.447,0,0,0-.1-.359.447.447,0,0,0-.339-.157Z" transform="translate(727.124 -33.612)" fill="#0070e0"/>
      <path id="Path_183" data-name="Path 183" d="M-912.853,39.734a.883.883,0,0,0-.872.745l-1.448,9.184a.882.882,0,0,1,.872-.745h4.243a8.667,8.667,0,0,0,8.557-7.337,7.051,7.051,0,0,0,.084-.952,8.054,8.054,0,0,0-3.757-.895Z" transform="translate(922.581 -33.612)" fill="#001c64"/>
      <path id="Path_184" data-name="Path 184" d="M-905.621,42.359a7.07,7.07,0,0,1-.083.952,8.667,8.667,0,0,1-8.557,7.337H-918.5a.882.882,0,0,0-.872.745l-1.332,8.44-.834,5.295a.716.716,0,0,0,.163.577.716.716,0,0,0,.545.251h4.606a.883.883,0,0,0,.872-.745l1.213-7.695a.883.883,0,0,1,.872-.745h2.712A8.667,8.667,0,0,0-902,49.434a6.727,6.727,0,0,0-3.618-7.075Z" transform="translate(926.783 -35.342)" fill="#0070e0"/>
      <path id="Path_185" data-name="Path 185" d="M-932.4,21.779a.882.882,0,0,0-.871.744l-3.614,22.918a.717.717,0,0,0,.708.829h5.36l1.331-8.44,1.448-9.184a.883.883,0,0,1,.872-.745h7.678a8.057,8.057,0,0,1,3.757.895c.074-3.844-3.1-7.017-7.458-7.017Z" transform="translate(936.898 -21.779)" fill="#003087"/>
    </g>
  </g>
</svg>
