<svg xmlns="http://www.w3.org/2000/svg" width="28" height="28" viewBox="0 0 28 28">
  <path id="pinterest" d="M28,35V57a3,3,0,0,1-3,3H9.65a16.015,16.015,0,0,0,1.713-3.706c.187-.719.956-3.65.956-3.65a4.1,4.1,0,0,0,3.519,1.763c4.631,0,7.963-4.256,7.963-9.544C23.8,39.794,19.662,36,14.337,36,7.712,36,4.2,40.444,4.2,45.288c0,2.25,1.2,5.05,3.113,5.944.294.138.444.075.512-.206.05-.212.312-1.256.425-1.737a.453.453,0,0,0-.106-.437A5.983,5.983,0,0,1,7,45.35a6.643,6.643,0,0,1,6.931-6.663,6.06,6.06,0,0,1,6.413,6.244c0,4.15-2.094,7.025-4.825,7.025a2.232,2.232,0,0,1-2.275-2.775c.431-1.825,1.269-3.794,1.269-5.113,0-3.312-4.719-2.856-4.719,1.563a5.608,5.608,0,0,0,.456,2.281c-1.962,8.3-2.256,8.406-1.85,12.038l.137.05H3a3,3,0,0,1-3-3V35a3,3,0,0,1,3-3H25A3,3,0,0,1,28,35Z" transform="translate(0 -32)" fill="#fff"/>
</svg>
