<svg id="g4158" xmlns="http://www.w3.org/2000/svg" width="118.162" height="38.242" viewBox="0 0 118.162 38.242">
  <path id="polygon9" d="M443.079,147.746h-9.572l5.987-37.019h9.571Z" transform="translate(-391.876 -110.056)" fill="#fff"/>
  <path id="path11" d="M593.892,106.624a23.591,23.591,0,0,0-8.585-1.576c-9.453,0-16.109,5.041-16.15,12.247-.079,5.317,4.766,8.27,8.389,10.043,3.7,1.812,4.962,2.994,4.962,4.609-.038,2.48-2.992,3.623-5.748,3.623a19.05,19.05,0,0,1-8.981-1.969l-1.26-.591-1.34,8.31a29.133,29.133,0,0,0,10.675,1.97c10.043,0,16.582-4.963,16.66-12.642.038-4.214-2.52-7.443-8.035-10.082-3.348-1.694-5.4-2.836-5.4-4.569.039-1.576,1.734-3.189,5.513-3.189a16.264,16.264,0,0,1,7.13,1.417l.866.393,1.3-7.994Z" transform="translate(-507.989 -105.048)" fill="#fff"/>
  <path id="path13" d="M805.332,134.631c.788-2.127,3.821-10.358,3.821-10.358-.04.079.787-2.166,1.259-3.544l.669,3.19s1.813,8.861,2.206,10.712Zm11.815-23.9h-7.4c-2.283,0-4.018.669-5,3.071l-14.218,33.947h10.044s1.653-4.569,2.009-5.553h12.29c.275,1.3,1.142,5.553,1.142,5.553h8.863l-7.722-37.018Z" transform="translate(-706.707 -110.056)" fill="#fff"/>
  <path id="path15" d="M189.468,110.727l-9.374,25.243-1.024-5.12c-1.733-5.907-7.168-12.326-13.234-15.517l8.586,32.373h10.122l15.045-36.98Z" transform="translate(-155.831 -110.056)" fill="#fff"/>
  <path id="path17" d="M96.724,110.727h-15.4l-.158.748c12.013,3.072,19.969,10.477,23.238,19.377l-3.348-17.014c-.551-2.364-2.245-3.034-4.332-3.112Z" transform="translate(-81.166 -110.056)" fill="#fff"/>
</svg>
