<svg id="undraw_deliveries_2r4y" xmlns="http://www.w3.org/2000/svg" width="526.896" height="379.813" viewBox="0 0 526.896 379.813">
  <path id="Path_195" data-name="Path 195" d="M591.274,645.2h-20.24V489.426h16.461a3.016,3.016,0,0,1,3.016,3Z" transform="translate(-331.485 -266.994)" fill="#ccc"/>
  <path id="Path_196" data-name="Path 196" d="M527.216,655.714H309.863V544.774H527.216Z" transform="translate(-285.775 -276.681)" fill="#fff"/>
  <path id="Path_197" data-name="Path 197" d="M441.634,655.389H310.363V545.274H526.891v24.857a85.354,85.354,0,0,1-85.257,85.258Z" transform="translate(-285.863 -276.768)" fill="#f2f2f2"/>
  <path id="Path_198" data-name="Path 198" d="M542.444,493.85h0a3.018,3.018,0,0,0-.253.652L534.7,523.391l-8.13,15.4h-215.7v-3.834l12.281-11.562,14.326-27.4a12.228,12.228,0,0,1,2.457-3.24h0a12.229,12.229,0,0,1,8.38-3.323h191.47a3.016,3.016,0,0,1,2.667,4.424Z" transform="translate(-285.95 -266.994)" fill="#f2f2f2"/>
  <path id="Path_199" data-name="Path 199" d="M527.216,655.714H309.863V544.774H527.216Zm-215.7-1.65H525.566V546.424H311.513Z" transform="translate(-285.775 -276.681)" fill="#e6e6e6"/>
  <path id="Path_200" data-name="Path 200" d="M260.64,292.9l-4,14.762H45.084l6.836-12.287Z" transform="translate(-7.89 -51.262)" fill="#ccc"/>
  <rect id="Rectangle_275" data-name="Rectangle 275" width="34.648" height="1.917" transform="translate(32.103 326.227)" fill="#fff"/>
  <rect id="Rectangle_276" data-name="Rectangle 276" width="34.648" height="1.917" transform="translate(32.103 332.938)" fill="#fff"/>
  <rect id="Rectangle_277" data-name="Rectangle 277" width="34.648" height="1.917" transform="translate(32.103 339.649)" fill="#fff"/>
  <circle id="Ellipse_55" data-name="Ellipse 55" cx="12.463" cy="12.463" r="12.463" transform="translate(33.061 279.943)" fill="#fff"/>
  <path id="Path_201" data-name="Path 201" d="M499.175,503.167H488.591V421.7H497.2a1.577,1.577,0,0,1,1.577,1.569Z" transform="translate(-317.056 -255.141)" fill="#ccc"/>
  <path id="Path_202" data-name="Path 202" d="M465.676,508.664H352.01V450.648H465.676Z" transform="translate(-293.152 -260.207)" fill="#fff"/>
  <path id="Path_203" data-name="Path 203" d="M420.92,508.494H352.272V450.909H465.506v13A44.636,44.636,0,0,1,420.92,508.494Z" transform="translate(-293.197 -260.253)" fill="#f2f2f2"/>
  <path id="Path_204" data-name="Path 204" d="M473.639,424.017h0a1.576,1.576,0,0,0-.132.341l-3.919,15.108-4.251,8.052h-112.8v-2.005l6.422-6.046,7.492-14.33a6.394,6.394,0,0,1,1.285-1.695h0a6.4,6.4,0,0,1,4.382-1.738h100.13a1.577,1.577,0,0,1,1.394,2.314Z" transform="translate(-293.243 -255.141)" fill="#f2f2f2"/>
  <path id="Path_205" data-name="Path 205" d="M465.676,508.664H352.01V450.648H465.676Zm-112.8-.863h111.94v-56.29H352.873Z" transform="translate(-293.152 -260.207)" fill="#e6e6e6"/>
  <path id="Path_206" data-name="Path 206" d="M192.379,214.071l-2.094,7.719H79.653l3.575-6.426Z" transform="translate(-13.941 -37.466)" fill="#ccc"/>
  <rect id="Rectangle_278" data-name="Rectangle 278" width="18.119" height="1.003" transform="translate(63.05 220.842)" fill="#fff"/>
  <rect id="Rectangle_279" data-name="Rectangle 279" width="18.119" height="1.003" transform="translate(63.05 224.352)" fill="#fff"/>
  <rect id="Rectangle_280" data-name="Rectangle 280" width="18.119" height="1.003" transform="translate(63.05 227.861)" fill="#fff"/>
  <circle id="Ellipse_56" data-name="Ellipse 56" cx="6.518" cy="6.518" r="6.518" transform="translate(63.551 196.638)" fill="#fff"/>
  <path id="Path_207" data-name="Path 207" d="M879.388,669.653l-.066-.352a41.335,41.335,0,0,1,8.749-33.635,40.1,40.1,0,0,1,7.369-6.848l.26-.188.114.3c1.36,3.586,3.076,7.177,3.859,8.766l.528-11.865.3-.16a7.839,7.839,0,0,1,8.739.9,7.974,7.974,0,0,1,2.633,8.538c-.41,1.394-.8,2.84-1.173,4.239-1.287,4.806-2.619,9.775-5.2,13.959A24.985,24.985,0,0,1,887.32,664.8Z" transform="translate(-385.324 -290.676)" fill="#f2f2f2"/>
  <path id="Path_208" data-name="Path 208" d="M807.557,678.8a.979.979,0,0,1-.982.982H281.647a.982.982,0,0,1,0-1.964H806.575a.979.979,0,0,1,.982.982Z" transform="translate(-280.665 -299.965)" fill="#ccc"/>
  <path id="Path_209" data-name="Path 209" d="M766.619,374.073l-15.025-2.152c-5.082,8.5-6.887,31.114-6.887,31.114L730,437.985a6.7,6.7,0,1,0,10.447,5.033l24.143-40.68Z" transform="translate(-358.793 -246.428)" fill="#ffb8b8"/>
  <path id="Path_210" data-name="Path 210" d="M767.952,323.926h0A16.014,16.014,0,0,1,780.6,345.08l-3.189,9.038s-1.736,27.212-8.355,34.893l-20.311-1.839s3.714-13.729.863-20.371c-1.746-4.068-1.649-18.118.071-29.548a15.973,15.973,0,0,1,18.27-13.327Z" transform="translate(-362.517 -237.994)" fill="#e6e6e6"/>
  <path id="Path_211" data-name="Path 211" d="M548.8,439.012h-9.051L535.446,404.1H548.8Z" transform="translate(-93.712 -70.724)" fill="#ffb6b6"/>
  <path id="Path_212" data-name="Path 212" d="M826.782,674.477H798.95v-.352a10.834,10.834,0,0,1,10.833-10.833h0l5.084-3.857,9.486,3.858h2.43Z" transform="translate(-371.374 -296.748)" fill="#2f2e41"/>
  <path id="Path_213" data-name="Path 213" d="M498.484,387.132l-8.36,3.466L472.773,360l12.34-5.117Z" transform="translate(-82.743 -62.111)" fill="#ffb6b6"/>
  <path id="Path_214" data-name="Path 214" d="M783.687,622.01l-25.71,10.661-.135-.325a10.834,10.834,0,0,1,5.857-14.156h0l3.219-5.51,10.24-.07,2.244-.931Z" transform="translate(-364.034 -288.39)" fill="#2f2e41"/>
  <path id="Path_215" data-name="Path 215" d="M823.083,425.5l-64.232,6.711-8.592,28.938L720.5,508.968l32.854,60.362,11.57-10.385L753.822,510.2l33.149-35.787,6.286-2.608h0l4.99,132.8,18.455.3,8.076-146.532C828.657,445.429,827.489,434.741,823.083,425.5Z" transform="translate(-357.644 -255.806)" fill="#2f2e41"/>
  <path id="Path_216" data-name="Path 216" d="M804.517,311.935l-10.543-11.871-16.659,1.851-10.666,14.926h0a22.77,22.77,0,0,0-17.334,26.082c4.139,23.833,18.2,46.947,13.56,58.707-7.05,17.85-7.48,25.13,9.4,22.628s73.414-8.272,62.453-19.233-13.369-29.279-13.369-29.279l-.44-41.906a18.625,18.625,0,0,0-16.4-21.9Z" transform="translate(-362.628 -233.852)" fill="#e6e6e6"/>
  <circle id="Ellipse_57" data-name="Ellipse 57" cx="18.492" cy="18.492" r="18.492" transform="translate(402.794 26.189)" fill="#ffb8b8"/>
  <path id="Path_217" data-name="Path 217" d="M809.308,267.581a32.16,32.16,0,0,1-4.4,10.538,7.172,7.172,0,0,1-2.4,2.724,2.622,2.622,0,0,1-3.332-.417l-.45-.367a9.544,9.544,0,0,0,2.332-2.024,3.25,3.25,0,0,0,.625-2.907,2,2,0,0,0-2.449-1.308c-1.083.425-1.741,1.991-2.874,1.749-.916-.2-1.108-1.408-1.108-2.357.033-4.965-2.366-12.02-4.223-11.8a14.978,14.978,0,0,1-5.539-.741,14.514,14.514,0,0,0-5.548-.708c-.133.017-.267.042-.408.067a12.285,12.285,0,0,0-1.233-2.691,14.373,14.373,0,0,1-.15,3.049,28.518,28.518,0,0,1-4.615,1.458c-1.716.242-5.489,5.373-5.664,4.848A12.283,12.283,0,0,0,766.641,264a14.37,14.37,0,0,1-.15,3.049c-.008.042-.008.075-.017.117-.833-1.108-1.341-2.457-1.058-1.424-2.791-6.314-1.708-10.837,2.682-16.16a8.442,8.442,0,0,1,3.29-2.641,4.149,4.149,0,0,1,4.048.4,13.621,13.621,0,0,1,13.511-2.882c4.573,1.591,8.1,2.524,8.8,7.322,3.782-.608,7.672,1.541,9.755,4.748A15.374,15.374,0,0,1,809.308,267.581Z" transform="translate(-365.236 -223.997)" fill="#2f2e41"/>
  <path id="Path_218" data-name="Path 218" d="M799.466,448.794h-6.138V401.556h4.992a.915.915,0,0,1,.914.91Z" transform="translate(-370.39 -251.615)" fill="#3f3d56"/>
  <path id="Path_219" data-name="Path 219" d="M780.041,451.982H714.13V418.34h65.911Z" transform="translate(-356.529 -254.552)" fill="#fff"/>
  <path id="Path_220" data-name="Path 220" d="M754.089,451.883H714.282V418.492h65.661v7.538a25.883,25.883,0,0,1-25.854,25.854Z" transform="translate(-356.555 -254.579)" fill="#b95084"/>
  <path id="Path_221" data-name="Path 221" d="M784.658,402.9h0a.913.913,0,0,0-.077.2l-2.273,8.76-2.465,4.669h-65.41v-1.163l3.724-3.506,4.344-8.31a3.707,3.707,0,0,1,.745-.983h0a3.708,3.708,0,0,1,2.541-1.008h58.062a.915.915,0,0,1,.809,1.342Z" transform="translate(-356.582 -251.615)" fill="#3f3d56"/>
  <path id="Path_222" data-name="Path 222" d="M780.041,451.982H714.13V418.34h65.911Zm-65.41-.5h64.91V418.841h-64.91Z" transform="translate(-356.529 -254.552)" fill="#3f3d56"/>
  <path id="Path_223" data-name="Path 223" d="M503.648,188.809l-1.214,4.477H438.283l2.072-3.726Z" transform="translate(-76.707 -33.045)" fill="#b95084"/>
  <rect id="Rectangle_281" data-name="Rectangle 281" width="10.507" height="0.581" transform="translate(360.032 181.416)" fill="#fff"/>
  <rect id="Rectangle_282" data-name="Rectangle 282" width="10.507" height="0.581" transform="translate(360.032 183.451)" fill="#fff"/>
  <rect id="Rectangle_283" data-name="Rectangle 283" width="10.507" height="0.581" transform="translate(360.032 185.487)" fill="#fff"/>
  <circle id="Ellipse_58" data-name="Ellipse 58" cx="3.779" cy="3.779" r="3.779" transform="translate(360.323 167.381)" fill="#fff"/>
  <path id="Path_224" data-name="Path 224" d="M823.459,368.837l-15.025-2.152c-5.082,8.5-6.888,31.114-6.888,31.114l-14.7,34.95a6.7,6.7,0,1,0,10.447,5.033l24.143-40.68Z" transform="translate(-368.741 -245.512)" fill="#ffb8b8"/>
  <path id="Path_225" data-name="Path 225" d="M819.039,318.691h0a16.014,16.014,0,0,1,12.651,21.154l-3.189,9.038s4.016,27.212-2.6,34.893l-20.311-1.839s3.714-13.729.863-20.371c-1.746-4.068-1.649-18.118.071-29.548C807.835,323.291,810.317,317.34,819.039,318.691Z" transform="translate(-372.465 -237.079)" fill="#e6e6e6"/>
  <path id="Path_226" data-name="Path 226" d="M663.691,263.434a30.931,30.931,0,0,0-13.874,41.484c7.624,15.287,35.174,41.359,57.155,45.3-9.455-28.709,3.692-57.891-1.8-72.907C699.312,261.265,678.978,255.811,663.691,263.434Z" transform="translate(-344.703 -226.847)" fill="#b95084"/>
  <circle id="b262ea8c-1946-46c9-a449-3a1996c39394" cx="10.087" cy="10.087" r="10.087" transform="translate(319.206 52.77)" fill="#fff"/>
  <circle id="bcc29a3a-8123-4529-80aa-6f70df2823cf" cx="6.607" cy="6.607" r="6.607" transform="translate(355.468 126.346)" fill="#b95084"/>
  <path id="Path_227" data-name="Path 227" d="M682.868,283.144a10.087,10.087,0,0,1,.683,20.163,10.086,10.086,0,0,0-3.865-19.533,10.088,10.088,0,0,1,3.182-.63Z" transform="translate(-350.5 -230.89)" fill="#231f20" opacity="0.2"/>
  <path id="Path_228" data-name="Path 228" d="M709.7,277.317c5.488,15.015-7.659,44.2,1.8,72.906a42.788,42.788,0,0,1-6.114-1.6c-7.7-27.753,4.387-55.485-.915-69.993C699.727,265.646,685.5,259.6,672.15,261.8,686.807,256.806,704.331,262.613,709.7,277.317Z" transform="translate(-349.182 -226.848)" fill="#231f20" opacity="0.2"/>
  <path id="Path_229" data-name="Path 229" d="M336.1,449.844a28.66,28.66,0,0,0-29.34,27.964c-.38,15.824,10.887,49.116,27.183,61.868,4.7-27.611,28.11-45.815,30.121-60.492C366.213,463.5,351.923,450.225,336.1,449.844Z" transform="translate(-285.23 -260.065)" fill="#d1d3d4"/>
  <circle id="b262ea8c-1946-46c9-a449-3a1996c39394-2" data-name="b262ea8c-1946-46c9-a449-3a1996c39394" cx="9.347" cy="9.347" r="9.347" transform="translate(38.578 206.413)" fill="#fff"/>
  <circle id="bcc29a3a-8123-4529-80aa-6f70df2823cf-2" data-name="bcc29a3a-8123-4529-80aa-6f70df2823cf" cx="6.122" cy="6.122" r="6.122" transform="translate(38.278 281.255)" fill="#d1d3d4"/>
  <path id="Path_230" data-name="Path 230" d="M345.644,472.243a9.347,9.347,0,0,1-8.178,16.81,9.346,9.346,0,0,0,5.3-17.674,9.346,9.346,0,0,1,2.879.863Z" transform="translate(-290.606 -263.835)" fill="#231f20" opacity="0.2"/>
  <path id="Path_231" data-name="Path 231" d="M368.964,479.3c-2.012,14.676-25.425,32.88-30.121,60.492a39.642,39.642,0,0,1-4.314-3.96c5.717-26.069,27.637-43.543,29.58-57.723,1.74-12.691-7.288-23.807-19.182-27.787C359.1,452.574,370.934,464.924,368.964,479.3Z" transform="translate(-290.092 -260.149)" fill="#231f20" opacity="0.2"/>
  <path id="Path_232" data-name="Path 232" d="M467.391,302.215a8.216,8.216,0,0,0-7.674,8.511,7.885,7.885,0,0,0,.177,1.291L435.642,327.3l13.408,5.93,20.975-15.418a8.193,8.193,0,0,0,5.793-8.155,7.841,7.841,0,0,0-8.212-7.452Q467.5,302.207,467.391,302.215Z" transform="translate(-307.789 -234.225)" fill="#ffb6b6"/>
  <path id="Path_233" data-name="Path 233" d="M438.208,316.179l6.011,12.4-23.766,15.293a11.822,11.822,0,0,1-11.492.77h0a11.328,11.328,0,0,1-6.282-12.082l7.712-44.025A12.214,12.214,0,0,1,423.8,278.424h0A11.583,11.583,0,0,1,434.054,291.2q-.02.179-.045.358a11.891,11.891,0,0,1-.243,1.257l-8.419,31.31Z" transform="translate(-301.992 -230.051)" fill="#b95084"/>
  <rect id="Rectangle_284" data-name="Rectangle 284" width="33.988" height="33.988" transform="translate(103.916 105.354)" fill="#ffb8b8"/>
  <path id="Path_234" data-name="Path 234" d="M264.862,248.109l12.98-4.367,7.228,35.332-8.8,2.958Z" transform="translate(-46.355 -42.659)" fill="#ffb6b6"/>
  <path id="Path_235" data-name="Path 235" d="M238.2,244.754l12.876-4.668,8.049,35.154-8.724,3.162Z" transform="translate(-41.688 -42.019)" fill="#ffb6b6"/>
  <path id="Path_236" data-name="Path 236" d="M406.981,394.653c-6.812,45.415,83.9,18.565,83.9,18.565l28.443,39.238,16.652-3.028s-7.493-23.555-20.874-55.133c-5.942-14.023-73.42-10.6-73.42-10.6l-1.4-11-38.6-.757Z" transform="translate(-301.845 -246.433)" fill="#2f2e41"/>
  <path id="Path_237" data-name="Path 237" d="M487.536,422.892l20.977-13.065c15.357,30.665,19.884,43.946,19.884,43.946l-14.518,4.083Z" transform="translate(-316.871 -253.063)" fill="#2f2e41"/>
  <path id="Path_238" data-name="Path 238" d="M425.981,278.607l-6.841-8.794-9.759-.423-.974,8.271-4.835,2.23a129.681,129.681,0,0,0-2.184,56.183h0a5,5,0,0,1,1.423,4.859l-.314,1.25.029.046a7.321,7.321,0,0,1,.972,5.465h0l-2.309,4.1a11.652,11.652,0,0,0,6.2,16.666c14.194,5.145,27.5,7.061,37.344-7.376l3.1-50.312Z" transform="translate(-301.428 -228.484)" fill="#b95084"/>
  <circle id="Ellipse_59" data-name="Ellipse 59" cx="18.043" cy="18.043" r="18.043" transform="translate(99.343 7.578)" fill="#ffb8b8"/>
  <path id="Path_239" data-name="Path 239" d="M408.008,223.677c-7.64.147-13.7,7.233-13.534,15.828-5.654,5.9-7.023,34.915-2.3,42.633,8.641,1,13.9-20.376,21.476-17.285l1-4.666,2.263,6.076q2.889,1.332,5.734,2.924c1.363-6.252,1.025-12.33-2.639-17.624-3.255-4.7,4.666-10.286,10.331-9.5h0l-.083-4.319,1.423,4.294c2.208,1.623,4.651,1.035,7.156-.137h0C442.9,220.793,411.449,215.019,408.008,223.677Z" transform="translate(-299.68 -219.805)" fill="#2f2e41"/>
  <path id="Path_240" data-name="Path 240" d="M554.319,512.5l5.783-.755.319-5.595,3.357,5.115,15.338-2a3.477,3.477,0,0,0,1.138-6.541L566.9,495.864l-.721-5.52L553.4,492.8Z" transform="translate(-328.398 -267.154)" fill="#2f2e41"/>
  <path id="Path_241" data-name="Path 241" d="M534.491,512.01l5.246-2.548-1.469-5.408,4.8,3.789,13.915-6.757a3.477,3.477,0,0,0-.991-6.565l-14.838-2.279-2.432-5.008-11.349,6.373Z" transform="translate(-323.844 -266.61)" fill="#2f2e41"/>
  <path id="Path_242" data-name="Path 242" d="M440,360.918h6.433V311.4H441.2a.959.959,0,0,0-.959.954Z" transform="translate(-308.551 -235.837)" fill="#ccc"/>
  <path id="Path_243" data-name="Path 243" d="M447.067,329h69.086v35.262H447.067Z" transform="translate(-309.788 -238.916)" fill="#fff"/>
  <path id="Path_244" data-name="Path 244" d="M447.226,337.056v-7.9h68.823v35H474.325a27.13,27.13,0,0,1-27.1-27.1Z" transform="translate(-309.816 -238.944)" fill="#f2f2f2"/>
  <path id="Path_245" data-name="Path 245" d="M441.244,312.811h0a.96.96,0,0,1,.08.207l2.382,9.182,2.584,4.894h68.561v-1.219l-3.9-3.675-4.553-8.71a3.886,3.886,0,0,0-.781-1.03h0a3.887,3.887,0,0,0-2.664-1.056H442.092a.959.959,0,0,0-.847,1.406Z" transform="translate(-308.75 -235.837)" fill="#f2f2f2"/>
  <path id="Path_246" data-name="Path 246" d="M447.067,329h69.086v35.262H447.067Zm68.561,34.738H447.592V329.521h68.037Z" transform="translate(-309.788 -238.916)" fill="#e6e6e6"/>
  <path id="Path_247" data-name="Path 247" d="M162.045,99l1.273,4.692H230.56l-2.173-3.905Z" transform="translate(-28.361 -17.326)" fill="#ccc"/>
  <rect id="Rectangle_285" data-name="Rectangle 285" width="11.013" height="0.609" transform="translate(192.804 108.559)" fill="#fff"/>
  <rect id="Rectangle_286" data-name="Rectangle 286" width="11.013" height="0.609" transform="translate(192.804 110.691)" fill="#fff"/>
  <rect id="Rectangle_287" data-name="Rectangle 287" width="11.013" height="0.609" transform="translate(192.804 112.825)" fill="#fff"/>
  <circle id="Ellipse_60" data-name="Ellipse 60" cx="3.961" cy="3.961" r="3.961" transform="translate(195.59 93.847)" fill="#fff"/>
  <path id="Path_248" data-name="Path 248" d="M480.152,265.81a17.562,17.562,0,0,1,17.978,17.135c.233,9.7-6.671,30.1-16.656,37.909-2.878-16.919-17.224-28.073-18.457-37.066C461.7,274.179,470.456,266.043,480.152,265.81Z" transform="translate(-312.557 -227.856)" fill="#d1d3d4"/>
  <circle id="b262ea8c-1946-46c9-a449-3a1996c39394-3" data-name="b262ea8c-1946-46c9-a449-3a1996c39394" cx="5.727" cy="5.727" r="5.727" transform="translate(163.672 48.146)" fill="#fff"/>
  <circle id="bcc29a3a-8123-4529-80aa-6f70df2823cf-3" data-name="bcc29a3a-8123-4529-80aa-6f70df2823cf" cx="3.751" cy="3.751" r="3.751" transform="translate(167.808 94.004)" fill="#d1d3d4"/>
  <path id="Path_249" data-name="Path 249" d="M480.034,279.535a5.727,5.727,0,1,0,5.011,10.3,5.727,5.727,0,0,1-3.247-10.829A5.728,5.728,0,0,0,480.034,279.535Z" transform="translate(-314.994 -230.167)" fill="#231f20" opacity="0.2"/>
  <path id="Path_250" data-name="Path 250" d="M462.988,283.856c1.233,8.993,15.579,20.147,18.457,37.066a24.282,24.282,0,0,0,2.643-2.427c-3.5-15.974-16.934-26.681-18.125-35.37-1.066-7.777,4.466-14.588,11.754-17.026C469.034,267.483,461.781,275.05,462.988,283.856Z" transform="translate(-312.552 -227.908)" fill="#231f20" opacity="0.2"/>
  <path id="Path_251" data-name="Path 251" d="M464.039,323.536a8.216,8.216,0,0,0-8.781,7.364,7.882,7.882,0,0,0,0,1.3l-26.139,11.764,12.455,7.734,22.912-12.357a8.193,8.193,0,0,0,6.869-7.272,7.841,7.841,0,0,0-7.1-8.52Q464.146,323.543,464.039,323.536Z" transform="translate(-306.646 -237.956)" fill="#ffb6b6"/>
  <path id="Path_252" data-name="Path 252" d="M432.264,332.939l4.231,13.116L410.836,357.9a11.822,11.822,0,0,1-11.488-.833h0a11.328,11.328,0,0,1-4.544-12.837L408.552,301.7a12.214,12.214,0,0,1,14.684-8.154h0a11.583,11.583,0,0,1,8.383,14.074q-.044.175-.094.348a11.889,11.889,0,0,1-.415,1.211L418.426,339.02Z" transform="translate(-300.55 -232.644)" fill="#b95084"/>
</svg>
