<svg xmlns="http://www.w3.org/2000/svg" width="212.79" height="219.495" viewBox="0 0 212.79 219.495">
  <g id="成功" transform="translate(-94.186 -40.096)">
    <path id="Path_192" data-name="Path 192" d="M305.954,84.317a1.5,1.5,0,0,0-.613-.164A62.963,62.963,0,0,0,280.8,81.411c-15.746,1.6-27.448,9.823-34.946,24.441-9.016,17.64-23.1,21.092-23.664,21.269a2.143,2.143,0,0,0-1.191.761,1.77,1.77,0,0,0,.008,2.07,1.8,1.8,0,0,0,1.913.749l.143-.009c1.647-.356,16.444-4.368,26-23.133,15.194-29.794,46-22.739,55.109-19.916a2.408,2.408,0,0,0,1.894-.055,1.738,1.738,0,0,0,.753-.878,1.789,1.789,0,0,0-.861-2.392Z" fill="#fe5274"/>
    <g id="Group_124" data-name="Group 124">
      <path id="Path_193" data-name="Path 193" d="M255.684,231.909c1.351,6.3,7.512,13.332,13.63,18.9,2.77,2.519,1.139,7.515-2.6,7.6l-46.746,1.1a4.4,4.4,0,0,1-4.306-3.885c-1.019-7.147-4.616-17.582-11.778-29.757-8.634-14.677-9.5-46.623-6.907-50.94s5.332-38.11,6.907-48.35c1.727-11.225,8.059-9.21,12.088-8.634,0-8.634,2.887-15.69,7.771-18.132,3.453-1.727,7.77-.863,8.634,2.591.863-5.18,4.317-9.5,11.224-8.635,6.854.857,6.525,9.927,5.949,14.532,1.152-2.3,6.623-6.376,11.319-5.034,4.317,1.233,5.18,4.317,5.18,7.771s-3.453,14.677-7.77,34.535c-3.454,15.887-.288,32.522,1.726,38.853-.575-5.18,6.044-18.366,17.268-22.448,14.248-5.181,18.132,6.044,15.542,9.5-6.908,6.043-12.088,10.36-18.995,28.492C261.426,232.488,253.094,219.822,255.684,231.909Z" fill="#db78a9"/>
      <path id="Path_194" data-name="Path 194" d="M142.994,206.066c7.923,18.993,3.233,35.331-2.823,45.266-1.9,3.115.312,8.263,3.96,8.259l46.5-.046A4.651,4.651,0,0,0,195,254.6c-.317-6.919.875-18.714,6.977-33.121,9.982-23.565,3.63-39.879,0-50.755-1.435-4.3-11.8-36.253-17.241-43.5-4.356-5.8-9.982-6.948-11.8-6.344-.907-1.812-.907-6.344-4.537-13.6-2.844-5.681-9.377-6.042-12.7-5.438-.907-2.719-3.25-6.344-8.167-6.344-6.887,0-8.167,5.438-7.259,9.063-9.075.907-10.934,9.781-7.982,19.385,4.878,15.871,10.012,35,11.611,49.5-1.512-3.927-8.13-12.517-19.056-14.5-9.981-1.813-10.486,8.157-7.259,11.782,7.259,8.158,14.519,9.245,25.408,35.347Z" fill="#e8a58b"/>
      <path id="Path_195" data-name="Path 195" d="M154.668,102.4c-2.59.864-1.73,6.418,0,11.029,2.59,6.908,12.163,30.536,15.668,52.062M139.3,106.42c.863,2.707,4.307,11.762,5.816,16.086,4.141,11.863,9.011,26.531,12.015,43.051m13.607-44.163c-1.3,1.172-2.344,4.435,0,8.652,2.931,5.27,10.108,22.929,12.111,35.944m54.749,48A15.754,15.754,0,0,1,235.9,203.6c1.537-7.247,9.043-11.588,12.911-13.806,7.018-4.051,9.99-2.817,12.021-6.533m-19.44-25.5a81.445,81.445,0,0,0-17.786,2.181,78.633,78.633,0,0,0-20.9,8.458m37.849-10.784a132.793,132.793,0,0,1,2.416-22.456c1.6-8.646,3.391-14.8,6.926-26.922m-24.755,51.3c-.219-8.208.88-13.734,2.064-25.952a185.965,185.965,0,0,1,5.258-29.688m-20.5,59.544c-.192-6.873.488-11.713,1.53-21.145.918-8.313,1.158-11.5,2.863-23.269" fill="none" stroke="#000" stroke-linecap="round" stroke-linejoin="round" stroke-miterlimit="10" stroke-width="1.952"/>
      <path id="Path_196" data-name="Path 196" d="M204.376,177.5c4.005,12.515,4.005,30.035-3.084,44.908" fill="none" stroke="#000" stroke-linecap="round" stroke-width="1.952"/>
    </g>
    <path id="Path_197" data-name="Path 197" d="M230.683,40.624a2.31,2.31,0,0,0-1.5-.528,1.411,1.411,0,0,0-1.2.74c-.8,1.31-8.062,12.812-11.122,22.778a16.158,16.158,0,0,0-5.784,4.887c-7.087,10.755-5.8,29.2-5.787,29.934a2.549,2.549,0,0,0,2.148,2.285,1.614,1.614,0,0,0,1.11-.3l.2-.145a1.941,1.941,0,0,0,.485-1.459s-1.146-17.684,5.231-27.437a10.046,10.046,0,0,1,1.114-1.293c-.4,5.842,2.009,8.924,4.507,9.847s5.469-.343,7.483-3.513a18.82,18.82,0,0,0,2.368-5.522c1.366-4.928-.454-7.324-2.171-8.438a8.011,8.011,0,0,0-5.716-.714,122.314,122.314,0,0,1,9.387-18.08,2.111,2.111,0,0,0,.234-1.524,4.43,4.43,0,0,0-.984-1.516Zm-4.664,28.513c-1.537,5.543-4.215,7.216-5.339,6.788-.562-.215-1.411-1.826-1.186-5.072a25.277,25.277,0,0,1,.714-3.843c2.517-1.187,4.912-1.547,5.833-.974.31.148.423,1.3-.022,3.1Z" fill="#fe5274"/>
    <path id="Path_198" data-name="Path 198" d="M123.428,69.4C107.678,74.092,98.5,45.889,98.383,45.636a1.937,1.937,0,0,0-1.053-1.208,2.2,2.2,0,0,0-2.917.885,2.276,2.276,0,0,0-.128,1.643,65.108,65.108,0,0,0,7.843,15.924c6.525,9.376,14.309,13.01,22.489,10.542,15.9-4.776,24.387,14.732,24.75,15.6a2.207,2.207,0,0,0,2.461,1.279,1.061,1.061,0,0,0,.359-.137,2.317,2.317,0,0,0,.979-.835l.205-.325a2.037,2.037,0,0,0,.022-1.62,41.771,41.771,0,0,0-7.617-11.243c-6.543-6.755-14.315-9.111-22.348-6.732Z" fill="#25f4ee"/>
    <path id="Path_199" data-name="Path 199" d="M274.46,60.366a5.006,5.006,0,1,0-5.006-5.006,5.006,5.006,0,0,0,5.006,5.006Z" fill="#00eadb"/>
    <path id="Path_200" data-name="Path 200" d="M159.386,68.5a8.07,8.07,0,1,0-8.07-8.07A8.07,8.07,0,0,0,159.386,68.5Z" fill="#fe5275"/>
    <path id="Path_201" data-name="Path 201" d="M190.522,87.72a5.167,5.167,0,1,0-5.168-5.168,5.167,5.167,0,0,0,5.168,5.168Z" fill="#00eadb"/>
    <path id="Path_202" data-name="Path 202" d="M100.112,156.174a5.167,5.167,0,1,0-5.167-5.168,5.168,5.168,0,0,0,5.167,5.168Zm198.3-27.128a7.258,7.258,0,1,0-7.258-7.258A7.258,7.258,0,0,0,298.414,129.046Z" fill="#2450f5"/>
    <path id="Path_203" data-name="Path 203" d="M274.363,151.281a9.915,9.915,0,1,0-9.915-9.915A9.915,9.915,0,0,0,274.363,151.281ZM111.172,115.238a9.915,9.915,0,1,0-9.915-9.915A9.915,9.915,0,0,0,111.172,115.238Z" fill="#e5e5e5"/>
  </g>
</svg>
