<svg xmlns="http://www.w3.org/2000/svg" width="201.602" height="155.076" viewBox="0 0 201.602 155.076">
  <g id="undraw_happy_birthday_re_c16u" transform="translate(0 -0.001)">
    <path id="Path_253" data-name="Path 253" d="M706.868,283.861c4.325-11.628,14.543-21.676,26.892-22.871a57.161,57.161,0,0,0-9.034,38.191c.632,5.165,1.873,10.843-.911,15.239a12.778,12.778,0,0,1-7.932,5.179,37.947,37.947,0,0,1-9.663.638l-.725.358C703.217,308.4,702.543,295.489,706.868,283.861Z" transform="translate(-571.765 -240.195)" fill="#f0f0f0"/>
    <path id="Path_254" data-name="Path 254" d="M737.683,260.6a48.857,48.857,0,0,0-18.151,23.961,21.038,21.038,0,0,0-1.284,6.466,12.067,12.067,0,0,0,1.632,6.138,24.975,24.975,0,0,1,2.7,5.407,7.389,7.389,0,0,1-1.038,5.953,19.2,19.2,0,0,1-5.6,5.2c-2.338,1.611-4.791,3.246-6.222,5.776-.173.307-.639.02-.466-.286,2.489-4.4,7.712-6,10.907-9.74a7.483,7.483,0,0,0,2-6.273c-.4-2.032-1.639-3.77-2.641-5.542a12.876,12.876,0,0,1-1.819-5.942,19.451,19.451,0,0,1,1.031-6.491A47.4,47.4,0,0,1,725.426,272a49.723,49.723,0,0,1,12-11.884c.288-.2.544.283.258.482Z" transform="translate(-575.629 -239.55)" fill="#fff"/>
    <path id="Path_255" data-name="Path 255" d="M737.243,310.184a7.33,7.33,0,0,1-3.662-8.757c.108-.335.633-.183.525.152a6.788,6.788,0,0,0,3.423,8.139C737.843,309.877,737.555,310.342,737.243,310.184Z" transform="translate(-592.434 -268.361)" fill="#fff"/>
    <path id="Path_256" data-name="Path 256" d="M742.232,365.5a14.128,14.128,0,0,0,8.013-6.465c.174-.306.64-.019.466.286a14.7,14.7,0,0,1-8.352,6.711c-.336.105-.462-.427-.127-.532Z" transform="translate(-598.593 -308.714)" fill="#fff"/>
    <path id="Path_257" data-name="Path 257" d="M774.452,286.411a4.149,4.149,0,0,0,3.872.711c.335-.109.46.423.127.532a4.649,4.649,0,0,1-4.286-.777.283.283,0,0,1-.09-.376.275.275,0,0,1,.376-.09Z" transform="translate(-620.989 -257.956)" fill="#fff"/>
    <path id="Path_258" data-name="Path 258" d="M766.727,350.379c-.207.074-.414.149-.623.227a54.64,54.64,0,0,0-8.055,3.7c-.2.109-.4.222-.6.337a57.605,57.605,0,0,0-16.118,13.785,55.934,55.934,0,0,0-4.808,7.01c-1.964,3.391-3.824,7.223-6.709,9.694a9.587,9.587,0,0,1-.94.726L709.189,381.2c-.039-.033-.08-.062-.12-.095l-.794-.15c.065-.132.134-.267.2-.4.037-.077.079-.152.116-.229.026-.051.052-.1.073-.149.009-.017.017-.034.025-.046.021-.047.045-.089.065-.132q.582-1.136,1.181-2.267s0,0,.007-.008a82.256,82.256,0,0,1,10.921-16.091c.129-.145.259-.294.4-.437a53.387,53.387,0,0,1,6.341-5.973,47.191,47.191,0,0,1,3.886-2.775,39.242,39.242,0,0,1,11.25-4.9c7.942-2.057,16.453-1.551,23.459,2.511C766.374,350.167,766.549,350.27,766.727,350.379Z" transform="translate(-574.968 -299.944)" fill="#f0f0f0"/>
    <path id="Path_259" data-name="Path 259" d="M767.091,359.182a48.857,48.857,0,0,0-28.919,8.2,21.041,21.041,0,0,0-4.918,4.39,12.067,12.067,0,0,0-2.392,5.883,24.975,24.975,0,0,1-1.1,5.945,7.389,7.389,0,0,1-4.413,4.128,19.2,19.2,0,0,1-7.6.776c-2.836-.122-5.78-.293-8.446.866-.323.14-.522-.369-.2-.509,4.637-2.016,9.77-.148,14.573-1.21a7.483,7.483,0,0,0,5.377-3.8c.9-1.865.961-4,1.228-6.015A12.877,12.877,0,0,1,732.41,372a19.452,19.452,0,0,1,4.731-4.562,47.4,47.4,0,0,1,13.3-6.53,49.723,49.723,0,0,1,16.737-2.264C767.527,358.654,767.44,359.195,767.091,359.182Z" transform="translate(-575.436 -308.507)" fill="#fff"/>
    <path id="Path_260" data-name="Path 260" d="M813.365,359.625a7.33,7.33,0,0,1,2.349-9.2c.288-.2.616.235.328.438a6.788,6.788,0,0,0-2.167,8.559C814.03,359.741,813.52,359.939,813.365,359.625Z" transform="translate(-647.988 -302.746)" fill="#fff"/>
    <path id="Path_261" data-name="Path 261" d="M781.088,417.792a14.128,14.128,0,0,0,10.291-.338c.323-.139.523.37.2.509a14.7,14.7,0,0,1-10.709.33c-.332-.119-.111-.619.219-.5Z" transform="translate(-625.653 -349.67)" fill="#fff"/>
    <path id="Path_262" data-name="Path 262" d="M863.705,362.583a4.149,4.149,0,0,0,2.664,2.9c.333.114.112.615-.219.5a4.65,4.65,0,0,1-2.954-3.2.283.283,0,0,1,.155-.354A.275.275,0,0,1,863.705,362.583Z" transform="translate(-683.368 -311.167)" fill="#fff"/>
    <path id="Path_263" data-name="Path 263" d="M285.95,625.671c-11.268-5.191-20.515-16.138-20.775-28.542a57.161,57.161,0,0,0,37.4,11.892c5.2-.24,10.954-1.048,15.126,2.06a12.778,12.778,0,0,1,4.565,8.3,37.947,37.947,0,0,1-.094,9.684l.3.75C310.142,631.164,297.218,630.861,285.95,625.671Z" transform="translate(-264.894 -475.42)" fill="#f0f0f0"/>
    <path id="Path_264" data-name="Path 264" d="M264.777,596.66A48.857,48.857,0,0,0,287.3,616.568a21.039,21.039,0,0,0,6.35,1.769,12.067,12.067,0,0,0,6.243-1.164,24.98,24.98,0,0,1,5.6-2.288,7.389,7.389,0,0,1,5.858,1.484,19.2,19.2,0,0,1,4.757,5.977c1.429,2.453,2.875,5.023,5.29,6.64.293.2-.029.638-.321.443-4.2-2.814-5.4-8.143-8.888-11.611a7.483,7.483,0,0,0-6.1-2.472c-2.056.248-3.883,1.35-5.725,2.215a12.877,12.877,0,0,1-6.062,1.365,19.45,19.45,0,0,1-6.395-1.518,47.4,47.4,0,0,1-12.678-7.665,49.723,49.723,0,0,1-10.944-12.863c-.179-.3.323-.521.5-.221Z" transform="translate(-264.239 -474.991)" fill="#fff"/>
    <path id="Path_265" data-name="Path 265" d="M309.3,658.471a7.33,7.33,0,0,1-9.009,2.99c-.326-.133-.135-.645.192-.512a6.788,6.788,0,0,0,8.374-2.8c.181-.3.623.021.443.321Z" transform="translate(-289.353 -518.037)" fill="#fff"/>
    <path id="Path_266" data-name="Path 266" d="M366.217,646.236a14.128,14.128,0,0,0-5.842-8.479c-.292-.2.029-.64.321-.443a14.7,14.7,0,0,1,6.061,8.835C366.836,646.493,366.3,646.578,366.217,646.236Z" transform="translate(-331.433 -503.506)" fill="#fff"/>
    <path id="Path_267" data-name="Path 267" d="M288.35,617.808a4.149,4.149,0,0,0,1-3.808c-.084-.342.457-.426.54-.086a4.65,4.65,0,0,1-1.1,4.215.283.283,0,0,1-.382.061A.275.275,0,0,1,288.35,617.808Z" transform="translate(-281.075 -487.014)" fill="#fff"/>
    <path id="Path_268" data-name="Path 268" d="M358.939,505.725c.058.212.117.424.18.638a54.643,54.643,0,0,0,3.08,8.311c.093.209.191.419.29.625a57.606,57.606,0,0,0,12.528,17.113,55.947,55.947,0,0,0,6.627,5.323c3.233,2.215,6.914,4.359,9.16,7.422a9.6,9.6,0,0,1,.653.992l-6.131,19.275c-.036.037-.068.075-.1.112l-.21.781c-.126-.074-.256-.154-.383-.228-.074-.043-.146-.09-.219-.133-.049-.03-.1-.06-.143-.084l-.044-.028c-.046-.024-.085-.052-.126-.074q-1.088-.666-2.171-1.349s0,0-.007-.007a82.256,82.256,0,0,1-15.22-12.1c-.135-.14-.274-.281-.406-.429a53.374,53.374,0,0,1-5.478-6.774,47.2,47.2,0,0,1-2.473-4.085,39.243,39.243,0,0,1-4.034-11.588c-1.451-8.074-.3-16.523,4.276-23.2C358.7,506.061,358.817,505.894,358.939,505.725Z" transform="translate(-326.855 -411.457)" fill="#f0f0f0"/>
    <path id="Path_269" data-name="Path 269" d="M369.915,505.355a48.857,48.857,0,0,0,6,29.456,21.038,21.038,0,0,0,4.006,5.236,12.067,12.067,0,0,0,5.686,2.83,24.975,24.975,0,0,1,5.845,1.542,7.389,7.389,0,0,1,3.783,4.712,19.2,19.2,0,0,1,.2,7.636c-.335,2.819-.728,5.742.226,8.487.116.333-.407.493-.523.16-1.66-4.776.59-9.754-.106-14.622a7.483,7.483,0,0,0-3.385-5.648c-1.791-1.04-3.913-1.26-5.9-1.679a12.877,12.877,0,0,1-5.662-2.56,19.451,19.451,0,0,1-4.192-5.062,47.4,47.4,0,0,1-5.508-13.753,49.723,49.723,0,0,1-.994-16.86c.039-.349.571-.221.532.125Z" transform="translate(-337.6 -410.965)" fill="#fff"/>
    <path id="Path_270" data-name="Path 270" d="M364.819,586.909a7.33,7.33,0,0,1-8.993-3.037c-.18-.3.281-.6.461-.294a6.788,6.788,0,0,0,8.371,2.808c.326-.132.485.392.16.523Z" transform="translate(-328.301 -465.848)" fill="#fff"/>
    <path id="Path_271" data-name="Path 271" d="M420.659,606.04a14.128,14.128,0,0,0,.44-10.287c-.114-.333.408-.493.523-.16a14.7,14.7,0,0,1-.48,10.7C421,606.618,420.517,606.36,420.659,606.04Z" transform="translate(-373.681 -474.216)" fill="#fff"/>
    <path id="Path_272" data-name="Path 272" d="M371.044,537.878a4.149,4.149,0,0,0,3.092-2.437c.139-.324.621-.065.483.256a4.65,4.65,0,0,1-3.415,2.7.283.283,0,0,1-.342-.181A.275.275,0,0,1,371.044,537.878Z" transform="translate(-338.845 -432.147)" fill="#fff"/>
    <path id="Path_273" data-name="Path 273" d="M391.742,347.026c-9.957-9.8-14.162-20.028-11.842-28.794,2.978-11.249,16.208-19.027,36.3-21.339l.074.645c-19.81,2.28-32.839,9.883-35.744,20.86-2.258,8.531,1.886,18.533,11.67,28.165Z" transform="translate(-344.74 -265.319)" fill="#f0f0f0"/>
    <path id="Path_274" data-name="Path 274" d="M546.564,521.258a155.867,155.867,0,0,1-39.345-5.4c-16.588-4.391-31.8-11.02-43.983-19.168l.361-.54c12.128,8.109,27.269,14.707,43.788,19.08a151.783,151.783,0,0,0,43.488,5.3l.023.649Q548.756,521.258,546.564,521.258Z" transform="translate(-403.494 -404.758)" fill="#f0f0f0"/>
    <path id="Path_275" data-name="Path 275" d="M723.384,388.686l-.208-.615c11.114-3.758,18.066-9.811,20.1-17.506,2.59-9.782-3.036-21.134-15.842-31.964-12.871-10.885-31.431-19.917-52.262-25.432l.166-.628c20.922,5.539,39.572,14.618,52.515,25.564,13.008,11,18.708,22.588,16.051,32.626C741.812,378.647,734.715,384.856,723.384,388.686Z" transform="translate(-551.805 -276.27)" fill="#f0f0f0"/>
    <path id="Path_276" data-name="Path 276" d="M372.322,487.626c-24.418-10.83-43.234-24.88-52.982-39.563l.541-.359c9.68,14.581,28.4,28.548,52.7,39.329Z" transform="translate(-302.798 -370.854)" fill="#f0f0f0"/>
    <path id="Path_277" data-name="Path 277" d="M763.875,625.587q-3.778,0-7.685-.169l.028-.649c19.438.842,36.588-1.485,49.6-6.728l.243.6C794.71,623.218,780.243,625.587,763.875,625.587Z" transform="translate(-608.498 -490.054)" fill="#f0f0f0"/>
    <path id="Path_278" data-name="Path 278" d="M547.385,271.956c-4.036-1.314-8.187-2.538-12.339-3.637-23.889-6.324-47.373-8.57-67.912-6.492l-.065-.646c20.616-2.084,44.18.167,68.144,6.511,4.163,1.1,8.326,2.329,12.373,3.647Z" transform="translate(-406.176 -239.801)" fill="#f0f0f0"/>
    <path id="Path_279" data-name="Path 279" d="M340.909,350.27c-9.957-9.8-14.162-20.028-11.842-28.794,2.978-11.249,16.208-19.027,36.3-21.339l.074.645c-19.81,2.28-32.839,9.883-35.744,20.86-2.258,8.531,1.886,18.533,11.67,28.165Z" transform="translate(-309.168 -267.589)" fill="#f0f0f0"/>
    <path id="Path_280" data-name="Path 280" d="M495.732,524.5a155.87,155.87,0,0,1-39.345-5.4c-16.587-4.391-31.8-11.02-43.983-19.168l.361-.54c12.128,8.109,27.269,14.707,43.788,19.08a151.78,151.78,0,0,0,43.488,5.3l.023.649Q497.923,524.5,495.732,524.5Z" transform="translate(-367.923 -407.028)" fill="#f0f0f0"/>
    <path id="Path_281" data-name="Path 281" d="M672.551,391.931l-.208-.615c11.114-3.758,18.066-9.811,20.1-17.506,2.59-9.782-3.036-21.134-15.842-31.964-12.871-10.885-31.431-19.917-52.262-25.432l.166-.628c20.922,5.539,39.573,14.618,52.515,25.564,13.008,11,18.708,22.588,16.051,32.626C690.978,381.891,683.882,388.1,672.551,391.931Z" transform="translate(-516.233 -278.54)" fill="#f0f0f0"/>
    <path id="Path_282" data-name="Path 282" d="M321.489,490.871c-24.418-10.83-43.235-24.88-52.982-39.563l.541-.359c9.68,14.581,28.4,28.548,52.7,39.329Z" transform="translate(-267.226 -373.125)" fill="#f0f0f0"/>
    <path id="Path_283" data-name="Path 283" d="M713.043,628.832q-3.778,0-7.685-.169l.028-.649c19.438.842,36.588-1.485,49.6-6.728l.243.6C743.878,626.463,729.411,628.832,713.043,628.832Z" transform="translate(-572.927 -492.325)" fill="#f0f0f0"/>
    <path id="Path_284" data-name="Path 284" d="M496.553,275.2c-4.036-1.314-8.187-2.538-12.339-3.637-23.889-6.324-47.373-8.57-67.912-6.492l-.065-.646c20.616-2.084,44.18.167,68.144,6.511,4.163,1.1,8.326,2.329,12.373,3.647Z" transform="translate(-370.604 -242.071)" fill="#f0f0f0"/>
    <path id="Path_285" data-name="Path 285" d="M452.129,462.691a5.038,5.038,0,0,0-5.033,5.033,236.49,236.49,0,0,0-1.909,42.525c.038.907.081,1.736.13,2.537.071,1.322.162,2.717.269,4.148.062.844.127,1.691.2,2.535.119,1.374.25,2.771.39,4.15.088.843.178,1.69.276,2.533.187,1.657.4,3.355.646,5.192a5.045,5.045,0,0,0,5.034,5.055H536.55a5.038,5.038,0,0,0,5.033-5.033l0-.035c.376-1.713.726-3.459,1.041-5.189.168-.912.314-1.741.444-2.533.237-1.442.448-2.838.626-4.148.122-.88.232-1.732.328-2.534.157-1.312.3-2.668.435-4.145.074-.8.142-1.633.208-2.536h0a147.628,147.628,0,0,0-3.081-42.485l0-.035a5.038,5.038,0,0,0-5.033-5.033Z" transform="translate(-390.694 -381.342)" fill="#3f3d56"/>
    <path id="Path_286" data-name="Path 286" d="M461,451.8c-18.292,0-37.675-1.662-63.043-4.987h0a5.339,5.339,0,0,1-5.3-4.764,4.9,4.9,0,0,1-.033-.592V426.194a.773.773,0,0,1,0-.1,5.369,5.369,0,0,1,5.353-5.26c44.135-6,70.945-6,119.509,0h0a5.368,5.368,0,0,1,5.332,5.276.587.587,0,0,1,0,.08v15.261a4.914,4.914,0,0,1-.034.594,5.346,5.346,0,0,1-5.324,4.764C496.49,450.136,479.293,451.8,461,451.8Z" transform="translate(-354.082 -348.904)" fill="#b95084"/>
    <path id="Path_287" data-name="Path 287" d="M591.877,450.939h-11.1a5.334,5.334,0,0,1-5.328-5.328V405.29a5.334,5.334,0,0,1,5.328-5.328h11.1a5.334,5.334,0,0,1,5.328,5.328v40.322A5.334,5.334,0,0,1,591.877,450.939Z" transform="translate(-482.02 -337.445)" fill="#3f3d56"/>
    <path id="Path_288" data-name="Path 288" d="M570.6,347.138a14.066,14.066,0,0,0-.423-2.237,14.5,14.5,0,0,0-.823-2.142,12.6,12.6,0,0,0-5.675-5.893,15.131,15.131,0,0,0-9.966-.914,19.7,19.7,0,0,0-7.7,3.6,20.023,20.023,0,0,0-3.211,3.028,39.286,39.286,0,0,0-2.953,4.735,19.712,19.712,0,0,0-4.381-6.267,20.6,20.6,0,0,0-7.546-4.561,19.013,19.013,0,0,0-4.625-.94,14.72,14.72,0,0,0-4.961.433,12.5,12.5,0,0,0-7.074,5.171,13.045,13.045,0,0,0-2.209,7.957,13.383,13.383,0,0,0,.91,4.155,15.84,15.84,0,0,0,.994,2.086,16.234,16.234,0,0,0,1.322,1.894,14.974,14.974,0,0,0,7.357,4.9,21.894,21.894,0,0,0,9.529.537,44.841,44.841,0,0,0,9.46-2.669c.409-.154.817-.313,1.225-.47a60.062,60.062,0,0,0,8.333,2.7,25.091,25.091,0,0,0,9.809.393,15.74,15.74,0,0,0,8.134-3.973,14.607,14.607,0,0,0,4.214-7.318A12.632,12.632,0,0,0,570.6,347.138Zm-42.282,12.409a21.868,21.868,0,0,1-5.3.031,16.466,16.466,0,0,1-3.689-.982,11.6,11.6,0,0,1-6.216-6.171,12.416,12.416,0,0,1-.752-2.734,11.319,11.319,0,0,1,0-2.509,11.811,11.811,0,0,1,.705-2.56,12.067,12.067,0,0,1,1.324-2.267,11.375,11.375,0,0,1,1.708-1.716A10.4,10.4,0,0,1,518,339.518a11.7,11.7,0,0,1,2.5-.669,14.812,14.812,0,0,1,3.489.027,18.042,18.042,0,0,1,4.019,1.108,18.968,18.968,0,0,1,3.87,2.256,18.577,18.577,0,0,1,2.99,2.981,18.324,18.324,0,0,1,2.177,3.749,18.994,18.994,0,0,1,1.169,4.321l0,.022a19.7,19.7,0,0,0-.128,2.242c0,.289.013.577.028.865a1.725,1.725,0,0,0-.338.455,54.559,54.559,0,0,1-6.94,2.2Q529.591,359.366,528.315,359.548Zm39.034-9.856a12.418,12.418,0,0,1-.752,2.735,11.534,11.534,0,0,1-6.215,6.171,16.466,16.466,0,0,1-3.689.982,21.877,21.877,0,0,1-5.314-.032,44.044,44.044,0,0,1-9.11-2.54c-.122-.045-.242-.093-.364-.139a1.7,1.7,0,0,0-.324-.45,19.437,19.437,0,0,0-.1-3.134,18.992,18.992,0,0,1,1.168-4.313,18.321,18.321,0,0,1,2.177-3.749,18.576,18.576,0,0,1,2.99-2.981,18.969,18.969,0,0,1,3.87-2.256,18.044,18.044,0,0,1,4.019-1.108,14.812,14.812,0,0,1,3.489-.027,11.7,11.7,0,0,1,2.5.669,10.4,10.4,0,0,1,1.914,1.121,11.378,11.378,0,0,1,1.708,1.716,12.069,12.069,0,0,1,1.324,2.267,11.806,11.806,0,0,1,.705,2.56,11.325,11.325,0,0,1,0,2.509Z" transform="translate(-435.542 -292.337)" fill="#3f3d56"/>
    <circle id="Ellipse_61" data-name="Ellipse 61" cx="1.948" cy="1.948" r="1.948" transform="translate(68.578 111.383)" fill="#b95084"/>
    <circle id="Ellipse_62" data-name="Ellipse 62" cx="1.948" cy="1.948" r="1.948" transform="translate(82.54 106.513)" fill="#b95084"/>
    <circle id="Ellipse_63" data-name="Ellipse 63" cx="1.948" cy="1.948" r="1.948" transform="translate(76.371 121.774)" fill="#b95084"/>
    <circle id="Ellipse_64" data-name="Ellipse 64" cx="1.948" cy="1.948" r="1.948" transform="translate(134.167 111.383)" fill="#b95084"/>
    <circle id="Ellipse_65" data-name="Ellipse 65" cx="1.948" cy="1.948" r="1.948" transform="translate(120.205 106.513)" fill="#b95084"/>
    <circle id="Ellipse_66" data-name="Ellipse 66" cx="1.948" cy="1.948" r="1.948" transform="translate(126.375 121.774)" fill="#b95084"/>
    <circle id="Ellipse_67" data-name="Ellipse 67" cx="1.948" cy="1.948" r="1.948" transform="translate(135.791 145.477)" fill="#b95084"/>
    <circle id="Ellipse_68" data-name="Ellipse 68" cx="1.948" cy="1.948" r="1.948" transform="translate(140.661 131.515)" fill="#b95084"/>
    <circle id="Ellipse_69" data-name="Ellipse 69" cx="1.948" cy="1.948" r="1.948" transform="translate(125.4 137.684)" fill="#b95084"/>
    <circle id="Ellipse_70" data-name="Ellipse 70" cx="1.948" cy="1.948" r="1.948" transform="translate(79.943 145.477)" fill="#b95084"/>
    <circle id="Ellipse_71" data-name="Ellipse 71" cx="1.948" cy="1.948" r="1.948" transform="translate(84.813 131.515)" fill="#b95084"/>
    <circle id="Ellipse_72" data-name="Ellipse 72" cx="1.948" cy="1.948" r="1.948" transform="translate(69.552 137.684)" fill="#b95084"/>
    <path id="Path_2961" data-name="Path 2961" d="M688,203.5a4.655,4.655,0,0,0,4.533-.533c1.648-1.229,2.265-3.374,2.783-5.363l1.528-5.884-2.581,1.567a18.124,18.124,0,0,0-5.095,4,6.145,6.145,0,0,0-1.135,6.093" transform="translate(-560.527 -191.724)" fill="#f2f2f2"/>
    <path id="Path_2961-2" data-name="Path 2961" d="M438.15,371.023a4.655,4.655,0,0,0,.729-4.505c-.731-1.921-2.624-3.1-4.4-4.145l-5.24-3.081.8,2.912a18.125,18.125,0,0,0,2.453,6,6.145,6.145,0,0,0,5.549,2.76" transform="translate(-379.706 -308.985)" fill="#f2f2f2"/>
    <path id="Path_2961-3" data-name="Path 2961" d="M848.056,672.775a4.655,4.655,0,0,0,.729-4.505c-.731-1.921-2.624-3.1-4.4-4.145l-5.24-3.081.8,2.912a18.126,18.126,0,0,0,2.453,6,6.145,6.145,0,0,0,5.549,2.76" transform="translate(-666.552 -520.146)" fill="#f2f2f2"/>
    <circle id="Ellipse_73" data-name="Ellipse 73" cx="2.598" cy="2.598" r="2.598" transform="translate(79.943 32.482)" fill="#fd6584"/>
    <circle id="Ellipse_74" data-name="Ellipse 74" cx="2.598" cy="2.598" r="2.598" transform="translate(10.782 109.111)" fill="#fd6584"/>
    <circle id="Ellipse_75" data-name="Ellipse 75" cx="2.598" cy="2.598" r="2.598" transform="translate(189.366 88.005)" fill="#fd6584"/>
    <circle id="Ellipse_76" data-name="Ellipse 76" cx="2.598" cy="2.598" r="2.598" transform="translate(8.185 43.846)" fill="#e6e6e6"/>
    <circle id="Ellipse_77" data-name="Ellipse 77" cx="2.598" cy="2.598" r="2.598" transform="translate(168.91 117.877)" fill="#e6e6e6"/>
    <circle id="Ellipse_78" data-name="Ellipse 78" cx="2.598" cy="2.598" r="2.598" transform="translate(174.105 38.976)" fill="#e6e6e6"/>
    <path id="Path_289" data-name="Path 289" d="M461.278,465.047a.774.774,0,0,1-1.075.082.864.864,0,0,1,.005-1.253c.929-1.115,2.465.062,2.672,1.17a2.786,2.786,0,0,1-1.311,2.774,3,3,0,0,1-3.347-.439,3.619,3.619,0,0,1,.728-5.841,5.063,5.063,0,0,1,4.378.2,36.48,36.48,0,0,1,4.16,2.6,23.2,23.2,0,0,0,10.02,3.421c.623.064.619-.911,0-.974a22.283,22.283,0,0,1-5.757-1.386,25.3,25.3,0,0,1-5.174-2.84,11.5,11.5,0,0,0-5.34-2.383,4.632,4.632,0,0,0-4.27,1.858,4.73,4.73,0,0,0-.711,4.15,4.381,4.381,0,0,0,3.34,2.875,3.581,3.581,0,0,0,3.776-1.744,3.322,3.322,0,0,0-.4-4.066,2.584,2.584,0,0,0-2.513-.683,2.21,2.21,0,0,0-1.495,1.9,1.748,1.748,0,0,0,3.156,1.068c.336-.531-.507-1.021-.841-.492Z" transform="translate(-398.47 -379.562)" fill="#3f3d56"/>
    <path id="Path_290" data-name="Path 290" d="M711.994,465.047a.774.774,0,0,0,1.075.082.864.864,0,0,0-.005-1.253c-.929-1.115-2.465.062-2.672,1.17a2.786,2.786,0,0,0,1.311,2.774,3,3,0,0,0,3.348-.439,3.619,3.619,0,0,0-.728-5.841,5.063,5.063,0,0,0-4.378.2,36.478,36.478,0,0,0-4.16,2.6,23.2,23.2,0,0,1-10.02,3.422c-.623.064-.619-.911,0-.974a22.283,22.283,0,0,0,5.758-1.386,25.3,25.3,0,0,0,5.173-2.84,11.5,11.5,0,0,1,5.34-2.383,4.632,4.632,0,0,1,4.27,1.858,4.731,4.731,0,0,1,.711,4.15,4.381,4.381,0,0,1-3.34,2.875,3.581,3.581,0,0,1-3.776-1.744,3.322,3.322,0,0,1,.4-4.066,2.584,2.584,0,0,1,2.513-.683,2.21,2.21,0,0,1,1.495,1.9,1.748,1.748,0,0,1-3.156,1.068c-.336-.531.507-1.021.841-.492Z" transform="translate(-565.887 -379.562)" fill="#3f3d56"/>
    <path id="Path_291" data-name="Path 291" d="M82.689,33.054,81.4,34.668l-4.55-2.692,1.286-1.614Z" transform="translate(-53.78 -21.247)" fill="#e4e4e4"/>
    <path id="Path_292" data-name="Path 292" d="M100.967,62.43l1.136,1.7L97.323,66.5l-1.136-1.7Z" transform="translate(-67.31 -43.687)" fill="#e4e4e4"/>
    <path id="Path_293" data-name="Path 293" d="M128.065,37.872l2.271.08L130.11,42.7l-2.271-.08Z" transform="translate(-89.46 -26.502)" fill="#e4e4e4"/>
    <path id="Path_294" data-name="Path 294" d="M618.054,364.007l-1.287,1.614-4.55-2.692,1.287-1.614Z" transform="translate(-428.419 -252.842)" fill="#e4e4e4"/>
    <path id="Path_295" data-name="Path 295" d="M636.332,393.383l1.136,1.7-4.78,2.378-1.136-1.7Z" transform="translate(-441.95 -275.283)" fill="#e4e4e4"/>
    <path id="Path_296" data-name="Path 296" d="M663.43,368.825l2.271.08-.226,4.752-2.271-.08Z" transform="translate(-464.099 -258.098)" fill="#e4e4e4"/>
  </g>
</svg>
